<svg width="296" height="118" viewBox="0 0 296 118" fill="none" xmlns="http://www.w3.org/2000/svg">
<path d="M58 115C88.9279 115 114 89.9279 114 59C114 28.0721 88.9279 3 58 3C27.0721 3 2 28.0721 2 59C2 89.9279 27.0721 115 58 115Z" fill="#DCDCFF"/>
<path d="M86 53.5128L77.7645 31.6411L55.8984 39.9433L57.4131 43.9578L72.3636 38.3619L56.5554 72.35L48.7211 55.1557H44.7677L30.4072 86.7715H35.1513L46.7442 61.2807L54.5789 78.4082H58.4655L76.317 40.0101L81.9798 55.0885L86 53.5128Z" fill="#523BE4"/>
<path d="M57.8 113.8C88.1757 113.8 112.8 89.1757 112.8 58.8C112.8 28.4244 88.1757 3.80005 57.8 3.80005C27.4244 3.80005 2.80005 28.4244 2.80005 58.8C2.80005 89.1757 27.4244 113.8 57.8 113.8Z" fill="#DCDCFF"/>
<path d="M28.8787 84.3572H44.2212V93.2H48.6428V79.9427H28.8787V84.3572Z" fill="#523BE4"/>
<path d="M61.9 38.6001C65.5428 38.6001 68.4 35.7428 68.4 32.1001C68.4 28.4574 65.5428 25.6001 61.9 25.6001C58.2572 25.6001 55.4 28.4574 55.4 32.1001C55.4 35.7428 58.2572 38.6001 61.9 38.6001Z" fill="#523BE4"/>
<path d="M82.1788 31.8428C82.1788 31.8428 80.6212 34.9573 75.6788 38.6001C72.8212 40.6787 68.9212 41.9787 65.2788 41.9787H58.2572C52.5428 41.9787 47.3428 45.1001 44.4788 50.0429C40.8427 56.8001 39.5427 61.2213 39.5427 61.4789L45 62.7789C45 62.7789 46.0428 58.6213 49.4212 52.6429C50.4572 50.8213 52.0212 49.2573 54.1 48.4789V93.2001H59.5572V67.7213H64.5V93.2001H69.9572V46.9213C73.0788 46.1429 76.2 45.1001 78.8 43.0213C85.0428 38.6001 86.8572 34.7001 87.1212 34.1787L82.1788 31.8428Z" fill="#523BE4"/>
<path d="M57.8036 112.821C87.6369 112.821 111.821 88.6368 111.821 58.8036C111.821 28.9703 87.6369 4.78572 57.8036 4.78572C27.9704 4.78572 3.78577 28.9703 3.78577 58.8036C3.78577 88.6368 27.9704 112.821 57.8036 112.821Z" fill="#DCDCFF"/>
<path d="M55.1722 61.8305H73.4542V56.1722H60.8306V38.0331H55.1722V61.8305Z" fill="#523BE4"/>
<path fill-rule="evenodd" clip-rule="evenodd" d="M21.7916 58.9984C21.7916 78.9642 38.0356 95.2085 58.0015 95.2085C77.9646 95.2085 94.2084 78.9642 94.2084 58.9984C94.2084 39.0328 77.9673 22.7917 58.0015 22.7917C38.0356 22.7917 21.7916 39.0328 21.7916 58.9984ZM40.3981 32.6566C45.6089 29.1754 51.7347 27.3176 58.0015 27.3182C66.4008 27.3277 74.4532 30.6684 80.3924 36.6076C86.3317 42.5468 89.6721 50.5995 89.6819 58.9984C89.6823 65.2653 87.8245 71.3911 84.3434 76.602C80.8623 81.8124 75.9139 85.8738 70.1243 88.2722C64.3352 90.6706 57.9646 91.2984 51.8184 90.0758C45.6721 88.8536 40.0264 85.8357 35.5952 81.4046C31.1641 76.9736 28.1465 71.3279 26.9241 65.1816C25.7017 59.0358 26.3294 52.6648 28.7277 46.8756C31.1261 41.086 35.1874 36.1378 40.3981 32.6566Z" fill="#523BE4"/>
</svg>
