<svg width="327" height="312" viewBox="0 0 327 312" fill="none" xmlns="http://www.w3.org/2000/svg">
<path d="M195.446 45.0338C195.446 45.0338 56.6657 57.6431 52.1617 160.735C49.05 230.813 91.4806 274.416 153.639 274.416C195.446 274.416 260.092 266.165 272.836 178.647C282.004 114.335 275.476 49.8642 195.446 45.0338Z" fill="#FFE234"/>
<path d="M185.807 212.277C193.575 220.376 197.615 223.332 201.19 225.511C207.094 228.939 197.462 233.145 190.623 231.431C179.279 228.627 173.215 226.6 173.215 226.6C173.215 226.6 177.567 232.048 182.543 236.413C186.271 239.842 191.87 247.628 178.655 246.539C165.599 245.602 147.888 227.385 147.888 227.385L185.807 212.277Z" fill="#8D0F26"/>
<path d="M157.679 229.564L227.765 204.025C237.245 200.597 242.221 190.007 238.797 180.513L191.406 49.8566C187.99 40.3558 177.422 35.373 167.942 38.8016L97.8486 64.3401C88.3688 67.7687 83.3931 78.359 86.8168 87.8521L134.216 218.509C137.791 228.01 148.199 232.992 157.679 229.564Z" fill="white"/>
<path d="M125.512 107.319C125.512 107.319 125.824 106.694 123.184 107.943C118.208 110.122 115.728 110.122 114.944 109.498C113.856 108.72 113.08 107.631 112.616 106.381C112.304 105.292 112.152 103.89 119.296 101.086C120.536 100.622 122.096 100.462 123.336 100.774L128.312 101.711L125.512 107.319Z" fill="#2A197E"/>
<path d="M175.246 89.2541C175.246 89.2541 174.622 89.1017 177.422 88.3169C182.55 86.7627 184.574 85.2008 184.726 84.1113C185.038 82.8618 184.878 81.4675 184.574 80.218C184.262 79.1285 183.334 78.039 176.03 80.5304C174.63 80.9952 173.542 81.7723 172.614 82.8694L169.35 86.7627L175.254 89.2541H175.246Z" fill="#2A197E"/>
<path d="M131.887 144.384L125.048 125.23V124.766C125.048 124.613 125.048 124.453 125.2 124.301C125.2 124.149 125.352 123.989 125.512 123.989C125.664 123.836 125.824 123.836 125.976 123.836L134.52 120.72C134.672 120.72 134.832 120.568 134.984 120.568C135.136 120.568 135.296 120.568 135.448 120.72C135.6 120.72 135.76 120.872 135.912 121.032C136.064 121.185 136.064 121.345 136.224 121.345L142.752 140.499V140.963C142.752 141.116 142.752 141.276 142.6 141.428C142.6 141.581 142.448 141.741 142.288 141.741C142.136 141.893 141.976 141.893 141.824 141.893L133.28 145.009C133.128 145.009 132.968 145.161 132.816 145.161C132.663 145.161 132.504 145.161 132.352 145.009C132.199 145.009 132.04 144.857 131.887 144.697C132.04 144.697 132.04 144.544 131.887 144.384Z" fill="#2A197E"/>
<path d="M193.582 121.962L186.59 102.808C186.59 102.656 186.438 102.496 186.278 102.496C186.126 102.343 185.966 102.343 185.814 102.183C185.662 102.183 185.502 102.031 185.35 102.031C185.198 102.031 185.038 102.031 184.886 102.183L176.342 105.3C176.19 105.3 176.03 105.452 175.878 105.452C175.776 105.553 175.672 105.658 175.566 105.764C175.566 105.917 175.414 106.077 175.414 106.229V106.694L182.406 125.848C182.406 126 182.558 126.16 182.717 126.16C182.87 126.312 183.029 126.312 183.182 126.472C183.334 126.472 183.494 126.625 183.646 126.625C183.798 126.625 183.958 126.625 184.11 126.472L192.654 123.356C192.806 123.356 192.966 123.204 193.118 123.204C193.219 123.102 193.323 122.998 193.43 122.892C193.43 122.739 193.582 122.579 193.582 122.427V121.962Z" fill="#2A197E"/>
<path d="M121.16 103.113C121.16 103.113 118.672 116.034 121.472 122.731C122.248 124.446 123.024 126.312 123.96 128.339C126.76 134.259 130.952 138.152 137.168 135.973L183.943 118.846C190.158 116.667 190.934 110.907 189.223 104.522C188.599 102.496 188.135 100.477 187.511 98.6024C185.487 91.753 175.231 83.3417 175.231 83.3417L121.153 103.12L121.16 103.113Z" fill="white"/>
<path d="M175.399 83.4941C175.246 83.4941 167.783 74.3057 165.607 71.5019C163.743 68.8581 160.943 66.8315 143.072 72.9038C142.448 73.2162 141.831 73.3685 141.048 73.6809C140.424 73.8333 139.808 74.1457 139.024 74.458C121.305 81.3074 120.688 84.5836 120.841 87.8521C120.993 91.2806 121.153 103.265 121.153 103.265C121.153 103.265 118.665 116.187 121.464 122.884C122.24 124.598 123.017 126.625 123.952 128.491C126.592 134.564 130.944 138.305 137.16 136.126L183.935 118.998C190.151 116.819 190.927 111.059 189.215 104.675C188.591 102.648 187.975 100.629 187.503 98.7548C185.479 91.9054 175.383 83.4941 175.383 83.4941H175.399Z" fill="#00D3B8"/>
<path d="M171.199 84.5837C171.199 84.5837 166.999 86.6103 148.199 93.4597C129.392 100.309 124.888 101.399 124.888 101.399C124.888 101.399 124.264 87.5398 124.112 86.1379C123.96 84.7361 132.968 80.378 142.295 76.9495C151.623 73.521 161.255 71.0296 162.031 72.2791C162.807 73.5286 171.199 84.5837 171.199 84.5837Z" fill="#2A197E"/>
<path d="M166.383 102.183C166.231 101.719 166.231 101.094 166.231 100.629C166.383 100.164 166.543 99.692 167.007 99.2272L173.999 91.9054C174.31 91.4407 174.775 91.1283 175.398 90.9683C176.334 90.6559 177.262 90.6559 178.198 91.1207C179.134 91.5854 179.75 92.2102 180.062 93.1473C180.214 93.6121 180.214 94.0844 180.214 94.5492C180.214 95.0139 179.902 95.4863 179.75 95.9511L177.727 98.9072C176.639 100.621 174.927 101.863 173.063 102.488L169.951 103.578C169.327 103.89 168.551 103.73 167.775 103.425C167.151 103.578 166.535 102.96 166.375 102.183H166.383Z" fill="white"/>
<path d="M139.656 111.996C139.503 111.532 139.191 111.059 138.72 110.747C138.248 110.435 137.784 110.282 137.32 110.122L127.216 109.033C126.592 109.033 126.128 109.033 125.504 109.185C125.04 109.337 124.569 109.65 124.264 109.962C123.952 110.275 123.64 110.739 123.488 111.052C123.336 111.516 123.176 111.989 123.176 112.454C123.176 112.918 123.176 113.391 123.328 113.855C123.481 114.32 123.793 114.793 124.104 115.105C124.416 115.417 124.88 115.73 125.345 115.882L128.761 116.819C130.625 117.284 132.801 117.284 134.665 116.507L137.776 115.417C138.4 115.105 139.016 114.64 139.328 114.015C139.952 113.391 139.952 112.614 139.64 111.989L139.656 111.996Z" fill="white"/>
<path d="M155.199 220.688C160.479 232.055 166.231 253.388 153.647 274.417C133.287 274.417 115.104 269.746 100.032 261.023C100.496 249.03 100.184 230.966 95.2163 216.482C88.2244 195.774 101.744 178.639 112.776 159.333L123.808 189.702C123.808 189.702 126.136 195.149 131.576 194.06C137.015 192.97 141.991 183.47 145.719 175.843C151.159 165.1 154.423 154.822 159.551 159.18C163.279 162.297 163.127 172.887 160.639 178.487C154.423 192.506 149.919 209.473 155.199 220.688Z" fill="#B75757"/>
<path d="M210.858 166.07C211.178 165.597 211.341 165.034 211.322 164.462C211.304 163.891 211.105 163.34 210.755 162.888C210.405 162.436 209.921 162.106 209.372 161.946C208.823 161.785 208.237 161.802 207.699 161.995L200.695 164.52C200.158 164.714 199.573 164.733 199.024 164.575C198.476 164.416 197.991 164.088 197.64 163.637L193.079 157.759C192.727 157.308 192.242 156.981 191.693 156.822C191.144 156.664 190.559 156.683 190.021 156.877C189.483 157.071 189.021 157.43 188.699 157.902C188.377 158.374 188.213 158.936 188.229 159.508L188.47 166.944C188.485 167.516 188.32 168.078 187.998 168.55C187.675 169.023 187.212 169.382 186.675 169.576L179.678 172.099C179.14 172.295 178.678 172.655 178.358 173.129C178.038 173.603 177.876 174.166 177.895 174.737C177.913 175.309 178.112 175.86 178.463 176.311C178.813 176.763 179.298 177.093 179.847 177.253L186.989 179.324C187.538 179.483 188.022 179.811 188.373 180.263C188.724 180.714 188.923 181.265 188.942 181.836L189.182 189.273C189.203 189.842 189.403 190.391 189.754 190.841C190.104 191.29 190.587 191.618 191.135 191.778C191.682 191.937 192.266 191.92 192.803 191.729C193.34 191.538 193.803 191.182 194.127 190.713L198.303 184.56C198.623 184.085 199.086 183.725 199.625 183.531C200.164 183.337 200.75 183.319 201.299 183.48L208.441 185.551C208.99 185.706 209.574 185.684 210.109 185.488C210.645 185.293 211.105 184.933 211.425 184.461C211.744 183.989 211.907 183.428 211.89 182.858C211.873 182.289 211.676 181.739 211.329 181.287L206.768 175.408C206.417 174.956 206.219 174.405 206.201 173.834C206.183 173.263 206.347 172.7 206.668 172.228L210.858 166.07Z" fill="#2A197E"/>
</svg>
