<svg width="200" height="140" viewBox="0 0 200 140" fill="none" xmlns="http://www.w3.org/2000/svg">
<mask id="mask0_782_30256" style="mask-type:alpha" maskUnits="userSpaceOnUse" x="4" y="-30" width="194" height="198">
<ellipse cx="101.007" cy="69" rx="96.9934" ry="98.2953" fill="#D9D9D9"/>
</mask>
<g mask="url(#mask0_782_30256)">
<path d="M155.351 38.3381C173.452 59.2802 163.408 98.1336 138.698 118.496C109.658 142.426 62.6716 136.549 43.1221 105.497C3.06552 41.8722 111.665 -12.2039 155.351 38.3381Z" fill="#DCDDFC"/>
<mask id="mask1_782_30256" style="mask-type:alpha" maskUnits="userSpaceOnUse" x="36" y="19" width="129" height="115">
<path d="M155.351 38.3888C173.452 59.3864 163.407 98.3427 138.697 118.759C109.657 142.753 62.6715 136.86 43.122 105.726C23.5725 74.5916 49.6394 39.8371 66.2926 26.8041C82.9459 13.7711 137.249 17.3912 155.351 38.3888Z" fill="#D9D9D9"/>
</mask>
<g mask="url(#mask1_782_30256)">
<path d="M72.3294 89.4293C72.6702 80.9785 79.8376 72.3083 79.8376 72.3083L89.1504 66.7533L108.662 63.6826L109.99 64.185C109.99 64.185 108.541 74.3297 104.7 85.6814C98.6234 103.646 95.505 124.136 98.1514 150.373C87.2282 156.101 75.5723 159.827 63.1699 161.853C65.6374 145.776 72.055 96.2496 72.3294 89.4276V89.4293Z" fill="#00D3B8"/>
<path d="M105.304 86.6644C109.092 75.3258 110.523 65.1929 110.523 65.1929C110.523 65.1929 116.906 66.4191 123.298 68.4056C129.691 70.3921 133.83 79.8965 133.83 79.8965L140.185 93.499C143.975 103.047 144.977 127.482 143.975 130.464C135.625 155.316 115.354 140.396 106.642 146.717C102.71 149.57 99.9525 150.979 99.5473 151.195C99.3993 151.276 98.9925 151.202 98.8428 151.281C96.2318 125.074 99.3085 104.608 105.304 86.6644Z" fill="white"/>
<path d="M51.0882 163.363C52.8988 157.12 58.9557 130.059 61.4035 122.527C64.4224 113.241 68.8707 90.6897 70.307 85.0261C71.7433 79.3625 73.6637 76.1587 76.3988 73.6834C79.1339 71.2081 87.334 68.2134 87.334 68.2134C87.334 68.2134 80.5441 77.83 78.6098 81.1572C76.6756 84.4844 74.7675 91.0926 77.0691 100.918C77.0691 100.918 77.4225 114.1 75.2845 121.18C73.4756 127.166 70.2618 146.386 68.7193 161.07C62.9966 162.307 57.1312 162.942 51.0864 163.363H51.0882Z" fill="white"/>
<path d="M97.5504 23.9957C97.5504 23.9957 94.6155 21.574 94.9054 19.4768C95.1953 17.3796 97.3798 16.8758 97.3798 16.8758C97.3798 16.8758 96.0531 14.4507 97.0473 12.3876C98.0415 10.3246 100.68 10.3946 100.68 10.3946C100.68 10.3946 101.427 6.7894 104.465 5.4368C107.504 4.08421 110.56 5.05254 112.027 6.2651C112.027 6.2651 115.219 4.4104 118.814 5.20454C122.409 5.99868 123.64 8.8405 123.64 8.8405C123.64 8.8405 128.054 8.6885 129.305 11.7677C130.557 14.8469 129.152 17.1935 129.152 17.1935C129.152 17.1935 133.374 19.0089 131.06 24.0026C130.992 24.1477 131.038 24.3202 131.173 24.4073C132.283 25.1246 136.71 28.4651 132.094 33.5613C131.988 33.6791 131.93 33.8328 131.938 33.9899C131.979 34.7823 131.961 37.3424 130.223 39.0417C128.587 40.6402 126.497 40.6043 125.68 40.5155C125.492 40.495 125.32 40.6231 125.289 40.8093C125.148 41.6768 124.566 43.8851 122.273 44.0388C119.414 44.2283 118.301 41.5914 116.63 42.155C114.958 42.7186 113.389 43.2002 112.157 42.8211C110.924 42.4419 97.5487 23.9957 97.5487 23.9957H97.5504Z" fill="#27207C"/>
<path d="M111.405 38.0072C111.405 38.0072 114.685 34.5881 111.865 29.3991C111.865 29.3991 109.495 24.7336 103.947 26.2153L111.405 38.0072Z" fill="#FF00BF"/>
<path d="M89.2901 67.4548C93.7948 62.3833 91.2471 59.2188 89.4911 58.2358C87.3366 57.027 86.3493 55.8564 86.3493 55.8564C83.0224 51.7228 84.655 44.8815 85.1645 37.7675C85.6723 30.6536 90.2475 28.8629 90.2475 28.8629C105.089 23.1384 112.799 36.1471 113.002 41.0796C113.204 46.0122 109.35 50.9655 109.35 50.9655L105.17 56.6032C104.407 61.8588 109.474 64.3459 109.474 64.3459L93.6202 86.3373L89.2866 67.4565L89.2901 67.4548Z" fill="#FF927A"/>
<path d="M107.265 43.4262C107.6 40.6209 109.319 40.9678 109.939 41.1413C110.559 41.3148 111.991 41.837 111.327 44.7094C110.665 47.5818 109.523 49.2455 109.523 49.2455C109.523 49.2455 107.939 52.394 106.063 51.4091C104.188 50.4243 107.265 43.428 107.265 43.428V43.4262Z" fill="#FF927A"/>
<path d="M103.629 47.7052C103.629 47.7052 105.783 47.8246 105.809 45.4342C105.809 45.4342 105.804 44.9295 105.151 43.973C104.497 43.0166 104.64 42.3397 105.396 40.7882C106.152 39.2367 105.351 36.8139 103.099 36.4303C100.849 36.0467 97.3753 35.2096 96.3468 32.0059C96.3468 32.0059 95.0007 32.6078 92.4432 32.127C89.884 31.6462 89.5527 33.9394 88.764 35.2351C87.9754 36.5309 86.9365 37.2316 85.549 37.6408C85.549 37.6408 85.0589 43.1922 84.7155 49.1391C84.7155 49.1391 83.6301 52.4177 79.7697 50.5286C79.7697 50.5286 82.3375 50.3803 82.4324 47.9337C82.5273 45.4871 80.2736 44.0327 79.3279 42.8546C78.3822 41.6765 78.2044 40.4574 78.2925 39.7124C78.3805 38.9656 78.943 37.9597 79.3382 37.3118C79.7334 36.6639 79.6816 35.4602 79.2036 34.6503C78.7256 33.8405 78.4547 30.1544 82.5446 30.6215C82.5446 30.6215 81.8698 26.5756 86.1875 26.1852C90.5052 25.7965 90.3241 27.3497 93.9049 24.545C97.4857 21.7404 103.645 22.5059 105.793 27.036C105.793 27.036 106.197 29.0359 107.868 29.4775C109.538 29.9208 111.44 31.6496 111.267 34.2122C111.095 36.7764 114.877 37.1447 114.493 40.4404C114.108 43.7361 112.834 45.3541 112.834 45.3541C112.834 45.3541 114.605 48.2031 112.066 51.3777C112.066 51.3777 110.456 53.1474 108.202 53.3316C108.202 53.3316 108.052 55.7083 105.132 56.1311C105.132 56.1311 104.949 53.3384 106.863 50.5951C106.863 50.5951 108.349 51.5209 109.964 48.6174C111.58 45.7138 112.63 42.1794 110.339 41.6032C110.339 41.6032 109.053 41.1411 108.287 42.251C108.287 42.251 108.893 49.0624 103.631 47.7052H103.629Z" fill="#27207C"/>
<path d="M99.4162 41.2981C99.4162 41.2981 98.5466 39.1247 96.5212 39.5801C94.494 40.0356 94.7764 42.209 95.1504 42.538C96.1397 41.854 97.6732 41.3379 99.4162 41.2981Z" fill="#27207C"/>
<path d="M90.3588 48.7004C90.427 47.636 91.8414 47.3245 91.8414 47.3245L96.6762 45.8205C96.6762 45.8205 98.4409 44.972 99.1748 46.3308C99.9087 47.6895 99.0457 50.2349 95.6897 51.3165C92.3319 52.3982 90.2685 50.1375 90.3588 48.7004Z" fill="white"/>
<path d="M90.3531 44.0483C90.3531 44.0483 90.4924 41.1265 88.1307 41.0301C85.769 40.9358 85.8238 43.648 85.8238 43.648C87.4384 43.5977 88.4283 43.5935 90.3531 44.0483Z" fill="#27207C"/>
<path d="M104.298 101.467C105.023 101.604 105.548 102.254 105.784 103.165C105.951 103.287 106.18 103.454 106.452 103.653C106.787 103.896 106.98 104.265 106.969 104.653C106.961 104.912 106.935 105.197 106.88 105.501C106.822 105.83 106.74 106.129 106.648 106.394C106.501 106.817 106.111 107.133 105.632 107.233L105.098 107.343C104.428 108.468 103.456 109.136 102.555 108.965C101.262 108.721 100.604 106.844 101.086 104.773C101.566 102.703 103.005 101.221 104.298 101.467Z" fill="#27207C"/>
<path d="M105.076 105.737C104.591 105.428 104.445 104.781 104.751 104.29C105.014 103.868 105.524 103.701 105.972 103.859C106.149 103.789 107.497 103.088 109.251 97.51C111.283 91.0498 112.442 83.8238 112.428 77.685C112.428 77.4747 112.432 77.2273 112.435 76.9479C112.512 70.7788 111.702 63.6135 104.673 62.9286C93.3056 61.8247 89.2239 66.4086 87.8034 70.4473C85.4536 77.1263 84.6643 85.9442 84.9241 91.7195C84.9507 92.2984 84.5077 92.7881 83.9349 92.815C83.362 92.8403 82.8774 92.3943 82.8507 91.8154C82.5826 85.8365 83.4053 76.6922 85.8483 69.7456C87.517 65.0018 92.1715 59.6084 104.873 60.8402C109.053 61.2458 112.022 63.6993 113.453 67.9349C114.582 71.2769 114.535 74.9841 114.51 76.9749C114.507 77.2424 114.503 77.4797 114.503 77.6816C114.517 84.0275 113.323 91.4873 111.228 98.1461C109.789 102.718 108.3 105.234 106.676 105.833C106.307 105.969 105.987 105.99 105.729 105.959C105.392 105.921 105.164 105.796 105.073 105.739L105.076 105.737Z" fill="#27207C"/>
<path d="M91.2243 61.3776C91.509 62.9211 91.034 64.9757 88.8442 67.5049L93.0591 86.3372L108.478 64.4023C108.478 64.4023 105.105 62.7046 104.361 59.1515L91.2261 61.3776H91.2243Z" fill="#FF927A"/>
<path d="M97.906 78.7856L91.8647 78.8164L93.2992 86.3372L97.906 78.7856Z" fill="#27207C"/>
<path d="M103.396 81.3812C103.396 81.3812 108.896 82.0009 110.096 82.4459C111.297 82.8926 114.35 85.6584 114.35 85.6584C114.35 85.6584 113.733 83.4843 113.834 81.7899C113.936 80.0972 115.13 79.8104 115.432 81.096C115.733 82.38 117.12 86.199 118.171 88.7587C119.222 91.3184 122.072 92.7211 122.072 92.7211C120.413 99.4987 118.287 101.44 118.287 101.44C116.496 99.3718 113.923 99.4624 112.162 98.7075C110.4 97.951 107.884 95.1869 107.884 95.1869C107.884 95.1869 108.466 95.8346 107.924 96.4099C107.382 96.9851 106.709 96.3571 106.709 96.3571C106.709 96.3571 105.101 95.088 104.05 93.5156C102.465 91.1437 103.067 89.9965 103.326 89.6652C102.955 88.4604 102.946 86.8385 103.657 86.0523C104.081 85.5842 104.742 85.098 105.406 84.6925C103.489 84.2524 102.438 82.7558 102.438 81.9646C102.438 81.1735 103.397 81.3779 103.397 81.3779L103.396 81.3812Z" fill="#FF927A"/>
<path d="M75.5868 98.4466C75.6076 98.2409 75.6336 98.1826 75.6735 97.9494C75.696 97.8139 75.7221 97.6339 75.7741 97.4573C76.8145 93.2873 80.8617 90.4204 85.2886 90.9262C89.3288 91.3874 92.5645 94.6127 92.9997 98.6027C92.9997 98.6147 93.0049 98.6249 93.0066 98.6369L93.0188 98.7518C93.806 106.005 93.0951 114.455 92.7517 117.75C92.6598 118.63 92.2021 119.442 91.4928 119.983L90.749 120.548L90.6224 121.639C90.5547 122.217 90.0328 122.635 89.4467 122.58C89.4398 122.58 89.4311 122.58 89.4242 122.578C88.8502 122.513 88.4289 122.011 88.4705 121.438L88.8589 116.258C88.9022 115.67 89.3583 115.154 89.953 115.209C90.6328 115.271 90.8582 115.667 90.6865 116.692C90.9969 113.422 91.5865 105.569 90.8703 98.9816L90.8617 98.8976C90.8617 98.8873 90.8565 98.8787 90.8547 98.8684C90.5409 95.8472 88.0959 93.4022 85.0406 93.0524C81.4512 92.6426 78.193 95.1717 77.7335 98.7055C77.0642 105.211 77.6 112.781 77.8861 115.948C77.7162 115.214 78.0092 114.755 78.5884 114.693C79.1814 114.629 79.6999 115.096 79.7415 115.686L80.1022 120.819C80.1438 121.399 79.7068 121.906 79.1207 121.958C79.0461 121.965 78.9716 121.963 78.8988 121.954C78.408 121.898 78.0057 121.514 77.9503 121.01L77.7994 119.763L77.0572 119.194C76.3515 118.65 75.8972 117.834 75.8105 116.954C75.5625 114.446 74.836 105.91 75.5747 98.5889C75.5747 98.5752 75.5747 98.5615 75.5747 98.5461C75.5781 98.5135 75.5851 98.4809 75.5885 98.4483L75.5868 98.4466Z" fill="#27207C"/>
<path d="M91.2717 42.5383C90.771 43.6236 90.0683 44.1304 90.4802 44.9256C90.8921 45.7209 93.3766 45.5416 93.3766 45.5416C93.3766 45.5416 91.7208 44.9989 91.3864 44.4079C91.052 43.8169 91.2734 42.5383 91.2734 42.5383H91.2717Z" fill="#6B1E3A"/>
</g>
<path d="M97.5504 23.9958C97.5504 23.9958 94.6155 21.5741 94.9054 19.4769C95.1953 17.3797 97.3798 16.8759 97.3798 16.8759C97.3798 16.8759 96.0531 14.4508 97.0473 12.3877C98.0415 10.3247 100.68 10.3947 100.68 10.3947C100.68 10.3947 101.427 6.78946 104.465 5.43686C107.504 4.08427 110.56 5.0526 112.027 6.26516C112.027 6.26516 115.219 4.41046 118.814 5.2046C122.409 5.99874 123.64 8.84056 123.64 8.84056C123.64 8.84056 128.054 8.68856 129.305 11.7678C130.557 14.847 129.152 17.1935 129.152 17.1935C129.152 17.1935 133.374 19.0089 131.06 24.0026C130.992 24.1478 131.038 24.3203 131.173 24.4074C132.283 25.1247 136.71 28.4652 132.094 33.5613C131.988 33.6792 131.93 33.8329 131.938 33.99C131.979 34.7824 131.961 37.3424 130.223 39.0417C128.587 40.6402 126.497 40.6044 125.68 40.5156C125.492 40.4951 125.32 40.6232 125.289 40.8093C125.148 41.6769 124.566 43.8851 122.273 44.0388C119.414 44.2284 118.301 41.5915 116.63 42.1551C114.958 42.7187 113.389 43.2003 112.157 42.8211C110.924 42.442 97.5487 23.9958 97.5487 23.9958H97.5504Z" fill="#27207C"/>
<path d="M111.405 38.0073C111.405 38.0073 114.684 34.5882 111.865 29.3993C111.865 29.3993 109.494 24.7337 103.947 26.2155L111.405 38.0073Z" fill="#FF00BF"/>
<path d="M89.2901 67.4548C93.7948 62.3833 91.2471 59.2189 89.4911 58.2359C87.3366 57.027 86.3493 55.8564 86.3493 55.8564C83.0224 51.7228 84.655 44.8816 85.1645 37.7676C85.6723 30.6536 90.2475 28.863 90.2475 28.863C105.089 23.1385 112.799 36.1472 113.002 41.0797C113.204 46.0122 109.35 50.9656 109.35 50.9656L105.17 56.6033C104.407 61.8588 109.474 64.3459 109.474 64.3459L93.6202 86.3374L89.2866 67.4566L89.2901 67.4548Z" fill="#FF927A"/>
<path d="M107.264 43.4262C107.599 40.621 109.318 40.9679 109.938 41.1414C110.558 41.3148 111.991 41.8371 111.326 44.7095C110.664 47.5818 109.522 49.2456 109.522 49.2456C109.522 49.2456 107.938 52.394 106.063 51.4092C104.188 50.4244 107.264 43.4281 107.264 43.4281V43.4262Z" fill="#FF927A"/>
<path d="M103.629 47.7053C103.629 47.7053 105.782 47.8246 105.808 45.4343C105.808 45.4343 105.803 44.9296 105.151 43.9731C104.497 43.0166 104.64 42.3398 105.396 40.7882C106.152 39.2367 105.351 36.814 103.099 36.4304C100.849 36.0468 97.3748 35.2096 96.3463 32.006C96.3463 32.006 95.0002 32.6079 92.4427 32.1271C89.8835 31.6463 89.5522 33.9394 88.7635 35.2352C87.9749 36.531 86.936 37.2317 85.5485 37.6409C85.5485 37.6409 85.0584 43.1922 84.715 49.1391C84.715 49.1391 83.6296 52.4178 79.7692 50.5287C79.7692 50.5287 82.337 50.3803 82.4319 47.9337C82.5268 45.4871 80.2731 44.0328 79.3274 42.8547C78.3817 41.6765 78.204 40.4575 78.292 39.7124C78.38 38.9656 78.9426 37.9597 79.3377 37.3118C79.7329 36.6639 79.6812 35.4602 79.2031 34.6504C78.7251 33.8405 78.4542 30.1544 82.5441 30.6216C82.5441 30.6216 81.8693 26.5757 86.1871 26.1853C90.5048 25.7965 90.3236 27.3498 93.9044 24.5451C97.4852 21.7404 103.644 22.506 105.793 27.036C105.793 27.036 106.197 29.036 107.867 29.4775C109.538 29.9208 111.439 31.6497 111.267 34.2122C111.094 36.7765 114.877 37.1447 114.492 40.4404C114.107 43.7361 112.834 45.3541 112.834 45.3541C112.834 45.3541 114.604 48.2031 112.066 51.3777C112.066 51.3777 110.456 53.1475 108.202 53.3316C108.202 53.3316 108.052 55.7083 105.132 56.1312C105.132 56.1312 104.949 53.3385 106.863 50.5952C106.863 50.5952 108.349 51.521 109.964 48.6174C111.579 45.7139 112.63 42.1795 110.338 41.6032C110.338 41.6032 109.053 41.1412 108.286 42.2511C108.286 42.2511 108.892 49.0624 103.63 47.7053H103.629Z" fill="#27207C"/>
<path d="M99.4162 41.2982C99.4162 41.2982 98.5466 39.1248 96.5212 39.5803C94.494 40.0357 94.7764 42.2091 95.1504 42.5381C96.1397 41.8541 97.6732 41.338 99.4162 41.2982Z" fill="#27207C"/>
<path d="M90.3583 48.7005C90.4265 47.636 91.8409 47.3245 91.8409 47.3245L96.6758 45.8206C96.6758 45.8206 98.4404 44.9721 99.1743 46.3308C99.9082 47.6895 99.0453 50.235 95.6892 51.3166C92.3314 52.3982 90.268 50.1375 90.3583 48.7005Z" fill="white"/>
<path d="M90.3531 44.0484C90.3531 44.0484 90.4924 41.1266 88.1307 41.0302C85.769 40.9359 85.8238 43.6481 85.8238 43.6481C87.4384 43.5978 88.4283 43.5936 90.3531 44.0484Z" fill="#27207C"/>
<path d="M97.906 78.786L91.8647 78.8168L93.2992 86.3376L97.906 78.786Z" fill="#27207C"/>
<path d="M91.2713 42.5383C90.7705 43.6236 90.0678 44.1304 90.4797 44.9257C90.8916 45.721 93.3761 45.5416 93.3761 45.5416C93.3761 45.5416 91.7203 44.999 91.3859 44.408C91.0516 43.817 91.2729 42.5383 91.2729 42.5383H91.2713Z" fill="#6B1E3A"/>
</g>
</svg>
