<svg width="200" height="141" viewBox="0 0 200 141" fill="none" xmlns="http://www.w3.org/2000/svg">
<path d="M172.997 61.7821C173.521 7.32415 94.8683 7.20748 51.3216 19.9347C-6.82227 36.9283 64.8873 122.903 82.7662 126.412C100.344 127.937 135.415 127.392 147.889 115.862C159.344 105.28 172.774 85.0657 172.997 61.7821Z" fill="#DCDDFC"/>
<mask id="mask0_782_31134" style="mask-type:alpha" maskUnits="userSpaceOnUse" x="26" y="13" width="145" height="115">
<path d="M170.12 62.3252C170.644 7.8673 91.9911 7.75063 48.4444 20.4778C-9.69947 37.4714 62.0101 123.446 79.889 126.955C97.4669 128.48 132.538 127.935 145.012 116.405C156.467 105.823 169.896 85.6088 170.12 62.3252Z" fill="#DCDDFC"/>
</mask>
<g mask="url(#mask0_782_31134)">
<path d="M127.561 119.798H117.344C113.857 119.798 111.03 127.143 111.03 136.179C111.03 145.215 113.857 152.562 117.344 152.562H127.561C131.048 152.562 133.875 145.218 133.875 136.179C133.875 127.14 131.048 119.798 127.561 119.798Z" fill="#27207C"/>
<path d="M118.875 140.806L118.259 135.05L116.214 83.9167L77.8519 60.9035C77.8519 60.9035 65.5051 51.8108 43.6845 53.4364L24.5273 55.8693L35.0263 102.806L57.9074 143.714L66.2958 150.241H74.5835L116.295 144.14C117.073 144.023 117.775 143.611 118.256 142.99C118.737 142.368 118.959 141.586 118.875 140.806Z" fill="#F9F9FC"/>
<path d="M75.1706 61.5082C75.1706 61.5082 62.0478 56.2421 49.1583 65.2173C54.6343 77.9309 71.0133 93.7733 75.1706 113.016C82.1519 140.248 78.2647 144.429 89.4132 143.205C100.562 141.981 97.3939 142.287 97.3939 142.287L100.579 141.981C100.579 141.981 93.5853 86.906 75.1706 61.5082Z" fill="#DCDDFC"/>
<path d="M74.5496 61.2903C79.1564 62.6393 86.6976 69.7268 86.6976 69.7268H77.2263L72.4697 64.7863L74.5496 61.2903Z" fill="#DCDDFC"/>
<path d="M97.399 142.287L100.567 141.981C100.567 141.981 97.9982 121.715 91.8665 100.102C90.651 95.8198 89.2979 91.4865 87.7951 87.2461L87.2671 85.5789C86.9413 84.7638 86.3772 84.0651 85.6481 83.5736C84.9191 83.082 84.0587 82.8202 83.1785 82.8222H60.0614C66.2004 91.7704 72.7545 101.818 75.1806 113.016C82.1619 140.248 78.2747 144.429 89.4232 143.205C100.333 142.005 97.5169 142.275 97.399 142.287Z" fill="#27207C"/>
<path d="M80.5754 82.8222H87.1319L88.1239 86.1934L86.1865 87.6942L80.3077 82.8222H80.5754Z" fill="#27207C"/>
<path d="M127.561 150.241C130.553 150.241 132.978 143.945 132.978 136.179C132.978 128.412 130.553 122.116 127.561 122.116C124.569 122.116 122.144 128.412 122.144 136.179C122.144 143.945 124.569 150.241 127.561 150.241Z" fill="white"/>
<path d="M136.063 76.8243C111.45 61.6454 84.0798 61.2512 76.9463 61.4348C76.7735 61.4393 76.6051 61.49 76.4587 61.5815C76.3123 61.6731 76.1932 61.8021 76.1139 61.9552C76.0346 62.1083 75.998 62.2798 76.0079 62.4519C76.0179 62.6239 76.0739 62.7901 76.1703 62.9331C93.8384 88.9038 100.579 141.981 100.579 141.981H118.375C120.464 141.981 122.496 141.298 124.158 140.036C125.82 138.774 127.022 137.004 127.579 134.996L135.309 107.099C138.624 93.5505 138.943 85.42 138.766 81.4147C138.726 80.4876 138.458 79.5845 137.987 78.7843C137.516 77.9841 136.855 77.3112 136.063 76.8243Z" fill="#27207C"/>
<path d="M88.5875 82.0386C86.1712 75.776 83.5977 70.3018 80.8941 65.6674C80.7936 65.4956 80.7411 65.3001 80.742 65.1013C80.7428 64.9024 80.7971 64.7075 80.8991 64.5366C81.0011 64.3657 81.1471 64.2251 81.3219 64.1295C81.4968 64.0339 81.6942 63.9867 81.8935 63.9928C92.8603 64.3061 114.73 66.6417 134.743 78.9979C135.172 79.2588 135.53 79.6203 135.787 80.0508C136.044 80.4813 136.191 80.9679 136.217 81.4681C136.231 81.7791 136.241 82.1169 136.249 82.4866C136.252 82.7168 136.21 82.9454 136.124 83.1591C136.038 83.3728 135.91 83.5674 135.748 83.7314C135.586 83.8955 135.393 84.0257 135.18 84.1146C134.967 84.2036 134.738 84.2493 134.507 84.2493H91.8019C91.1044 84.2494 90.4234 84.038 89.8493 83.6431C89.2752 83.2483 88.8351 82.6886 88.5875 82.0386Z" fill="#DCDDFC"/>
<path d="M127.165 74.8141L125.905 84.2496L136.558 84.8078L137.314 79.1695L127.165 74.8141Z" fill="#27207C"/>
<path d="M96.718 75.115C92.4252 71.1377 87.883 67.4367 83.1189 64.0344C82.699 64.0173 82.2889 64.0026 81.8911 63.9928C81.725 63.9877 81.56 64.0196 81.4079 64.0861C81.2558 64.1526 81.1205 64.2521 81.0118 64.3774C80.9032 64.5026 80.8239 64.6504 80.7797 64.81C80.7356 64.9696 80.7276 65.1371 80.7566 65.3001C84.6413 68.0666 89.997 72.1429 94.9991 76.8337L96.718 75.115Z" fill="#F9F9FC"/>
<path d="M81.9965 62.4315C81.7117 63.0729 81.3261 63.871 80.9553 64.6348C80.6877 65.1887 80.626 65.8192 80.7811 66.4142C80.9363 67.0092 81.2982 67.5299 81.8025 67.8836C82.3593 68.2753 83.048 68.4337 83.7206 68.3248C84.3933 68.2158 84.9962 67.8482 85.4 67.301C89.0613 62.3384 92.1161 58.3013 92.1161 58.3013L92.7349 57.4787L92.9952 46.3736C88.5899 47.5414 85.0194 55.6205 81.9965 62.4315Z" fill="#B63848"/>
<path d="M80.9071 66.7778L79.8338 62.4168L78.2595 61.3933L78.4167 61.1949C78.8786 60.6032 79.5499 60.2099 80.2931 60.0955L81.2878 59.9388C81.6285 59.8857 81.9758 59.8915 82.3144 59.9559C82.8152 60.055 83.2818 60.2813 83.669 60.6129C84.0563 60.9445 84.3511 61.3702 84.5249 61.8487L85.3084 63.9962L80.9071 66.7778Z" fill="#B63848"/>
<path d="M96.9808 66.5832H108.871C108.871 66.5832 113.63 77.064 113.63 90.8328C113.63 104.602 108.412 121.191 108.412 121.191C108.412 121.191 100.203 149.034 99.7409 163.337C99.7409 163.337 97.5161 165.716 94.3705 163.337C94.3705 163.337 91.5416 136.707 100.136 112.69C100.136 112.69 98.13 101.292 98.2847 90.7348L96.9808 66.5832Z" fill="#B63848"/>
<path d="M96.9805 66.5832C96.9805 66.5832 86.3919 76.6796 85.7019 106.589L94.3702 108.808C94.3702 108.808 98.8984 102.077 101.047 82.952L96.9805 66.5832Z" fill="#00D3B8"/>
<path d="M75.9834 116.282C76.9018 120.079 77.5992 123.382 78.164 126.229C89.337 117.33 94.371 108.808 94.371 108.808L90.6115 105.214L85.7003 106.59C80.7866 111.126 77.5476 114.556 75.9834 116.282Z" fill="#00D3B8"/>
<path d="M100.137 112.71C96.3747 123.22 94.6017 134.423 94.1696 143.643C94.1696 143.643 97.9831 146.03 102.705 143.643C105.22 132.024 108.412 121.201 108.412 121.201C108.412 121.201 113.63 104.602 113.63 90.8427C113.63 77.0837 108.871 66.5931 108.871 66.5931H96.9812L98.2852 90.7644C98.1231 101.311 100.137 112.71 100.137 112.71Z" fill="#00D3B8"/>
<path d="M136.503 92.879L125.785 92.0192C120.548 91.5991 115.961 95.4912 115.54 100.712L115.539 100.715C115.118 105.936 119.022 110.509 124.259 110.929L134.977 111.789C140.214 112.209 144.801 108.317 145.223 103.096L145.223 103.093C145.644 97.8722 141.74 93.2991 136.503 92.879Z" fill="white"/>
<path d="M132.654 96.5056L129.425 96.2461C128.317 96.1556 127.29 95.6308 126.57 94.7869C125.85 93.9429 125.494 92.8486 125.582 91.7438L125.695 90.3533C125.785 89.2483 126.311 88.2242 127.158 87.5054C128.004 86.7867 129.102 86.4321 130.211 86.5194L133.437 86.7789C134.545 86.8688 135.572 87.3933 136.293 88.2375C137.013 89.0816 137.369 90.1762 137.28 91.2811L137.167 92.6717C137.077 93.7759 136.551 94.7993 135.705 95.5179C134.859 96.2364 133.762 96.5916 132.654 96.5056ZM130.095 87.9565C129.369 87.8989 128.649 88.1311 128.094 88.602C127.538 89.0729 127.193 89.744 127.134 90.4683L127.023 91.8589C126.965 92.5828 127.197 93.3002 127.669 93.8534C128.141 94.4066 128.814 94.7503 129.54 94.809L132.769 95.0685C133.494 95.1226 134.21 94.8889 134.762 94.4183C135.314 93.9477 135.657 93.2784 135.716 92.5567L135.829 91.1661C135.886 90.442 135.653 89.725 135.181 89.1721C134.708 88.6191 134.036 88.2753 133.31 88.216L130.095 87.9565Z" fill="white"/>
<path d="M115.394 49.1421C113.169 45.0119 108.643 42.8967 103.076 42.8967L108.795 52.4325L113.439 61.246C114.396 63.0548 115.512 64.7753 116.774 66.3873L121.609 63.9832C121.609 63.9832 117.618 53.2796 115.394 49.1421Z" fill="#B63848"/>
<path d="M129.349 83.1257C129.349 83.1257 135.223 88.0222 133.195 82.0681C131.166 76.114 121.874 64.605 121.874 64.605L116.786 66.3873C117.491 67.5748 118.265 68.7193 119.107 69.8148L129.349 83.1257Z" fill="#B63848"/>
<path d="M96.9802 66.5831C96.9802 66.5831 102.579 68.8012 108.87 66.5831L110.177 59.9289C110.177 59.9289 113.091 58.7807 112.785 55.1084C112.478 51.436 109.172 44.1697 109.172 44.1697C109.172 44.1697 104.261 41.6554 95.912 43.6458C95.3032 43.7923 94.7451 44.0994 94.2962 44.5349C93.8473 44.9704 93.5242 45.5182 93.3607 46.121C92.7205 48.4782 92.3903 50.9084 92.3784 53.3505C92.376 58.4747 95.5216 59.7747 96.9802 66.5831Z" fill="white"/>
<path d="M133.015 81.537C135.687 85.8515 135.078 86.5273 134.545 87.2546C134.012 87.9818 132.851 88.0798 132.851 88.0798L133.015 81.537Z" fill="#B63848"/>
<path d="M119.052 29.2872C119.052 29.2872 115.719 33.9951 107.557 34.3183C99.3945 34.6415 103.075 31.2531 103.075 31.2531L119.052 29.2872Z" fill="#27207C"/>
<path d="M133.015 81.537C133.878 83.3767 134.425 85.3481 134.631 87.3686C134.647 87.6046 134.615 87.8413 134.537 88.0647C134.459 88.288 134.337 88.4936 134.178 88.6691C134.019 88.8447 133.827 88.9867 133.612 89.0867C133.397 89.1867 133.164 89.2427 132.927 89.2513L130.157 89.4545C129.13 89.528 128.286 88.6931 128.438 87.7408L129.189 82.7807L133.015 81.537Z" fill="#B63848"/>
<path d="M120.293 56.8347C119.502 54.5921 117.746 50.2979 115.023 47.338C114.947 47.2548 114.871 47.1765 114.794 47.0932L114.721 47.0173C111.025 43.1981 107.086 42.9166 103.093 42.897C102.524 42.8725 101.915 42.87 101.271 42.897C98.6341 42.897 95.8175 42.9802 93.1237 44.41C91.8393 45.0618 90.7001 45.9652 89.7742 47.0663L89.762 47.081C89.6343 47.2279 89.5164 47.3772 89.3813 47.5363C87.4168 50.009 85.6218 53.0693 84.5339 55.0352C84.2427 55.5659 84.1671 56.1879 84.323 56.7726C84.4789 57.3573 84.8542 57.8598 85.3713 58.1763L89.3199 60.6245C89.8506 60.9507 90.489 61.0549 91.0963 60.9147C91.7037 60.7744 92.231 60.4009 92.5638 59.8754L93.578 58.2718C94.6241 60.4066 96.1048 62.5096 96.9815 66.5957C96.9815 66.5957 102.58 68.8138 108.872 66.5957L110.178 59.9415C110.597 59.7535 110.982 59.4979 111.317 59.185L111.875 60.3797C112.06 60.7742 112.392 61.0815 112.8 61.2364C113.209 61.3913 113.661 61.3817 114.063 61.2096L119.369 58.9352C119.762 58.7679 120.077 58.4575 120.248 58.0673C120.42 57.677 120.436 57.2362 120.293 56.8347Z" fill="white"/>
<path d="M92.0591 58.2618C92.0591 58.2618 93.5324 67.0754 88.7292 76.1999C88.5442 76.5461 88.4356 76.9277 88.4106 77.3192C88.3856 77.7107 88.4449 78.1029 88.5844 78.4697C88.7239 78.8365 88.9405 79.1693 89.2196 79.4458C89.4987 79.7223 89.8339 79.9361 90.2026 80.0729C94.9002 81.8063 104.317 84.1321 112.603 79.1549C112.603 79.1549 109.113 65.7533 111.608 60.2228L92.0591 58.2618Z" fill="white"/>
<path d="M109.039 37.3227C109.393 37.2321 109.429 36.7007 109.184 36.4191C108.976 36.2333 108.781 36.0328 108.602 35.8192C108.5 35.662 108.423 35.4903 108.373 35.3099C108.395 36.1155 108.373 36.9113 108.341 37.854C108.341 37.7291 108.356 37.6091 108.364 37.4696C108.585 37.4035 108.683 37.4133 109.039 37.3227Z" fill="#B63848"/>
<path d="M108.98 37.2005C109.44 37.2005 109.812 36.033 109.812 34.5927C109.812 33.1525 109.44 31.9849 108.98 31.9849C108.52 31.9849 108.147 33.1525 108.147 34.5927C108.147 36.033 108.52 37.2005 108.98 37.2005Z" fill="#27207C"/>
<path d="M119.369 58.9254C119.369 58.9254 97.1404 74.998 80.4127 59.9733L89.7735 47.0663C89.7735 47.0663 111.761 53.4316 112.068 53.2382C112.375 53.0448 119.369 58.9254 119.369 58.9254Z" fill="white"/>
<path d="M109.14 43.5702C107.156 42.99 105.135 42.9092 103.097 42.8994C102.527 42.8749 101.918 42.8725 101.275 42.8994C99.4033 42.8994 97.4413 42.9435 95.4989 43.4796C96.405 44.312 101.635 48.6552 109.14 43.5702Z" fill="#B63848"/>
<path d="M104.95 40.8743C104.949 41.9961 105.32 43.0867 106.006 43.9762L100.282 45.6557L99.1667 43.8979C99.1667 43.8979 100.412 39.6576 99.6333 37.2877C98.8549 34.9178 96.0015 35.1137 97.6369 30.5624C99.2723 26.0112 105.004 27.2524 106.069 27.7176C107.135 28.1828 103.629 38.835 103.629 38.835L104.95 40.8743Z" fill="#B63848"/>
<path d="M108.38 35.6721C108.374 35.4683 108.353 35.2653 108.316 35.0649C108.267 34.5768 108.254 34.0859 108.276 33.596V33.5543C108.247 33.1749 108.208 32.7734 108.164 32.3302C108.1 31.9485 108.014 31.5708 107.906 31.1992C107.784 30.7993 107.642 30.4062 107.478 30.0216C107.352 29.6574 107.174 29.3135 106.948 29.0007C106.455 28.3742 105.79 27.9032 105.035 27.6443L102.673 31.3754L99.6941 40.2355C99.6941 40.2355 101.745 40.9333 104.092 41.5184C106.138 42.0301 107.284 42.0497 107.699 41.5869C108.114 41.1242 108.225 39.719 108.34 37.8534C108.375 37.0528 108.389 36.3576 108.38 35.6721Z" fill="#B63848"/>
<path d="M102.317 42.1242C103.311 42.1242 104.117 40.8262 104.117 39.225C104.117 37.6238 103.311 36.3258 102.317 36.3258C101.323 36.3258 100.517 37.6238 100.517 39.225C100.517 40.8262 101.323 42.1242 102.317 42.1242Z" fill="#00D3B8"/>
<path d="M83.9373 37.7043C86.4886 37.7043 88.4065 36.1913 94.3908 35.6919C100.375 35.1924 97.7623 31.8188 97.7623 31.8188C97.7623 31.8188 92.279 32.7516 92.0874 32.8421C91.8959 32.9327 85.7716 36.2696 85.7716 36.2696L83.9373 37.7043Z" fill="#27207C"/>
<path d="M96.5954 38.5399C98.1729 38.5399 99.4518 37.2649 99.4518 35.6921C99.4518 34.1193 98.1729 32.8444 96.5954 32.8444C95.0179 32.8444 93.739 34.1193 93.739 35.6921C93.739 37.2649 95.0179 38.5399 96.5954 38.5399Z" fill="#27207C"/>
<path d="M99.2158 39.3917C100.475 39.3917 101.495 38.3743 101.495 37.1193C101.495 35.8643 100.475 34.847 99.2158 34.847C97.9571 34.847 96.9366 35.8643 96.9366 37.1193C96.9366 38.3743 97.9571 39.3917 99.2158 39.3917Z" fill="#27207C"/>
<path d="M102.58 34.2522C102.664 33.7821 101.738 33.711 101.455 33.7429C100.608 33.8359 100.485 34.9427 100.684 35.5989C100.871 36.2111 101.433 36.8233 102.111 36.8453C102.111 36.8453 102.568 34.3232 102.58 34.2522Z" fill="#B63848"/>
<path d="M99.2158 37.9644C100.475 37.9644 101.495 36.9471 101.495 35.6921C101.495 34.4371 100.475 33.4197 99.2158 33.4197C97.9571 33.4197 96.9366 34.4371 96.9366 35.6921C96.9366 36.9471 97.9571 37.9644 99.2158 37.9644Z" fill="#27207C"/>
<path d="M100.84 34.9236C102.23 34.9236 103.358 33.7999 103.358 32.4137C103.358 31.0276 102.23 29.9039 100.84 29.9039C99.4497 29.9039 98.3226 31.0276 98.3226 32.4137C98.3226 33.7999 99.4497 34.9236 100.84 34.9236Z" fill="#27207C"/>
<path d="M100.84 37.0738C102.792 37.0738 104.374 35.4962 104.374 33.5502C104.374 31.6042 102.792 30.0266 100.84 30.0266C98.8881 30.0266 97.3058 31.6042 97.3058 33.5502C97.3058 35.4962 98.8881 37.0738 100.84 37.0738Z" fill="#27207C"/>
<path d="M104.327 32.974C104.327 38.7346 99.6953 37.4738 100.601 49.9401C101.512 62.4529 87.2356 62.874 83.9377 58.1C80.6398 53.326 87.1447 49.5019 90.6194 42.8966C94.6073 35.3071 93.7749 32.4476 97.3085 31.1745C100.842 29.9014 104.327 32.974 104.327 32.974Z" fill="#27207C"/>
<path d="M109.81 34.3011H100.911V34.8838H109.81V34.3011Z" fill="#27207C"/>
<path d="M108.162 32.3353C108.206 32.7687 108.245 33.1703 108.275 33.5596C108.267 33.1493 108.229 32.7401 108.162 32.3353Z" fill="#B63848"/>
<path d="M98.7196 32.0194C100.607 31.5531 102.526 31.2258 104.461 31.0401C105.706 30.903 107.022 30.6924 108.321 30.6288C108.714 30.6117 107.746 27.7521 107.614 27.5147C107.061 26.526 106.245 25.7085 105.256 25.1521C104.182 24.554 102.959 24.2745 101.731 24.3465C100.503 24.4185 99.3207 24.839 98.3242 25.5585C97.2279 26.3921 96.4325 27.5579 96.0577 28.8808C95.7188 30.0559 95.5003 31.8921 96.1829 32.9693C96.6299 32.3768 97.9583 32.225 98.7196 32.0194Z" fill="#FF00BF"/>
<mask id="mask1_782_31134" style="mask-type:alpha" maskUnits="userSpaceOnUse" x="95" y="24" width="14" height="9">
<path d="M98.719 32.0193C100.606 31.553 102.525 31.2257 104.46 31.04C105.705 30.9029 107.021 30.6923 108.32 30.6287C108.713 30.6115 107.746 27.752 107.613 27.5145C107.06 26.5259 106.245 25.7084 105.256 25.152C104.182 24.5539 102.958 24.2744 101.73 24.3464C100.502 24.4184 99.32 24.8389 98.3236 25.5584C97.2273 26.392 96.4319 27.5578 96.0571 28.8806C95.7182 30.0558 95.4997 31.8919 96.1823 32.9692C96.6292 32.3767 97.9577 32.2249 98.719 32.0193Z" fill="#3D6AFA"/>
</mask>
<g mask="url(#mask1_782_31134)">
<path d="M108.631 27.0899L95.1237 29.2662L95.5987 32.1965L109.106 30.0202L108.631 27.0899Z" fill="white"/>
</g>
<path d="M107.906 28.6141L107.393 28.7292L107.253 28.7586L106.875 28.8418L106.747 28.8688L106.273 28.9667H106.246L105.812 29.0524L105.701 29.0744L105.335 29.1454L105.254 29.1601L104.815 29.2409H104.798L104.392 29.3119H104.319L103.931 29.378H103.916C103.631 29.4269 103.354 29.4686 103.084 29.5102C100.557 29.897 98.6069 30.0659 95.7338 30.7C87.9667 33.8166 83.9469 37.6799 83.9469 37.6799L85.8721 36.5684C97.659 30.4723 110.229 36.2452 119.062 29.2678L107.906 28.6141Z" fill="#FF00BF"/>
<path d="M121.874 64.6053L121.206 62.9157L117.023 63.6111L116.773 66.3879L122.319 66.5838L121.874 64.6053Z" fill="#B63848"/>
</g>
</svg>
