<svg width="200" height="140" viewBox="0 0 200 140" fill="none" xmlns="http://www.w3.org/2000/svg">
<path d="M75.3754 68.321H75.3745L75.4013 68.5673L75.3754 68.321Z" fill="#5B54F6"/>
<path d="M88.556 94.0905H81.8343C79.8042 94.0905 77.9761 92.4424 77.7574 90.4094L77.0385 83.745C76.7753 83.7967 76.5077 83.823 76.2394 83.8234C73.8512 83.8234 71.7075 81.8855 71.4519 79.4992C71.3107 78.1842 71.774 77.0076 72.6147 76.2159C71.487 75.4269 70.6768 74.1792 70.5254 72.7701C70.5254 72.7701 70.2117 69.6714 70.7164 66.8642C70.0229 66.1169 69.5858 65.1677 69.4688 64.1549C69.383 63.387 69.5214 62.6107 69.8675 61.9199C69.9025 61.8451 69.9376 61.7768 69.9727 61.7039C71.9198 57.6565 73.9822 55.3791 73.9822 55.3791L74.4759 59.982L72.5879 42.4488L68.0468 38.5029C66.4088 37.079 66.0582 34.7324 67.2504 33.1664C68.2184 31.8957 69.9265 31.5192 71.4713 32.0941L70.9628 27.374C38.0106 36.6352 26.6015 64.1549 32.4781 89.5503C36.2747 105.957 52.9904 127.569 102.593 122.953C103.392 122.878 104.189 122.798 104.982 122.715C105.221 119.709 105.714 117.379 106.56 116.136C106.917 115.62 107.314 115.134 107.749 114.682C107.38 112.744 106.667 109.799 105.315 105.957C103.018 99.4178 94.1629 98.3381 88.556 94.0905Z" fill="#DCDDFC"/>
<path d="M110.972 22.8041L113.194 43.4259C113.194 43.4259 122.765 53.2527 124.812 60.29C126.703 66.7884 129.447 82.1511 137.412 102.902C139.055 102.969 140.477 103.261 141.557 103.832C142.375 104.265 143.337 105.113 144.399 106.274C145.151 107.094 145.952 108.073 146.789 109.173C149.312 111.365 152.216 110.45 155.814 108.659C156.266 108.435 156.737 108.195 157.228 107.939C157.368 107.867 157.514 107.809 157.666 107.768C168.993 101.169 172.304 84.7994 168.276 65.9999C162.49 38.9999 137.412 22.8041 110.972 22.8041Z" fill="#DCDDFC"/>
<path d="M97.013 59.2996C97.013 59.2848 97.013 59.2673 97.013 59.2525C96.9807 59.7315 96.9678 59.9908 96.9465 60.3368C96.9705 60.0055 96.9844 59.7481 97.013 59.2996Z" fill="#B63848"/>
<path d="M85.8213 56.7302L85.8158 56.768L85.5786 59.5401L85.5805 59.5392L85.8185 56.768L85.8213 56.7302Z" fill="#B63848"/>
<path d="M104.919 43.8993V43.9101C104.919 43.9065 104.919 43.9029 104.919 43.8993Z" fill="#B63848"/>
<path d="M104.874 43.5774C104.887 43.6439 104.896 43.7186 104.905 43.7915C104.899 43.7197 104.89 43.6482 104.876 43.5774L104.821 43.3172C104.809 43.2572 104.794 43.1972 104.781 43.1373C104.793 43.1972 104.806 43.2545 104.818 43.3154C104.836 43.403 104.857 43.4907 104.874 43.5774Z" fill="#B63848"/>
<path d="M104.919 43.8963C104.919 43.8931 104.919 43.8898 104.919 43.8866V43.8963Z" fill="#B63848"/>
<path d="M103.112 37.7168C103.06 37.5978 103.003 37.4833 102.95 37.3652L102.941 37.3514C102.998 37.4732 103.058 37.5922 103.112 37.7168Z" fill="#B63848"/>
<path d="M113.193 43.4258L110.971 22.804L110.897 22.1212C110.677 20.091 108.852 18.4401 106.819 18.4401H73.6802C71.65 18.4401 70.1736 20.0882 70.3959 22.1212L70.9625 27.3765L71.471 32.0966L72.5876 42.4486L74.4756 59.9818C74.634 60.0236 74.7902 60.0735 74.9435 60.1313C76.1144 60.5793 77.0765 61.4471 77.6427 62.5656C77.895 63.0618 78.0557 63.5995 78.117 64.1528C78.3311 66.147 77.1582 67.8209 75.3763 68.3211L75.3984 68.5638C77.3511 69.0169 78.9512 70.7241 79.1699 72.7662C79.3102 74.0803 78.8479 75.2578 78.0072 76.0495C79.1349 76.8385 79.9451 78.0862 80.0964 79.4953C80.3225 81.6076 78.9964 83.3627 77.0346 83.7402L77.7534 90.4046C77.9721 92.4348 79.7974 94.0856 81.8304 94.0856H112.728C111.519 92.1607 110.768 90.0586 110.274 87.9703H82.6821C82.4209 87.9649 82.1702 87.8661 81.9756 87.6917C81.7811 87.5173 81.6555 87.2789 81.6218 87.0198L80.4129 75.8032L80.4074 75.7533L79.8279 70.3651L79.8057 70.1547L79.6562 68.7705L79.6175 68.4106L79.5676 67.9538L79.5529 67.8172C80.1064 67.5098 80.6385 67.1655 81.1456 66.7865L81.2084 66.7413C81.9577 66.1664 82.4671 65.6164 82.6655 65.1725C83.0651 64.2848 83.1361 62.9643 83.2865 61.9233C83.3733 61.3272 83.4849 60.8206 83.7018 60.5438C84.0008 60.1636 84.4723 59.9126 84.8682 59.7566C83.5911 58.4868 82.4477 56.5388 82.5677 54.6738C83.3456 56.07 85.0472 56.1365 85.8491 56.0839C85.8491 55.975 85.8621 55.8661 85.8621 55.7572C85.8621 55.7517 85.8621 55.7461 85.8621 55.7406C85.8621 55.5966 85.8473 55.4536 85.8408 55.3096C85.7988 54.155 85.5636 53.0156 85.1451 51.9387C85.1275 51.8916 85.1044 51.8464 85.086 51.7984C85.0546 51.7181 85.0196 51.6397 84.9854 51.5603C84.9596 51.5603 84.9347 51.5511 84.9097 51.5474C84.4667 51.4637 84.0746 51.2083 83.819 50.8368L83.0263 49.7876L82.4726 49.0494L81.6033 47.8996L81.4105 47.643L81.4169 47.6366C81.2961 47.4691 81.1899 47.2916 81.0995 47.1059C81.0012 46.9032 80.9233 46.6911 80.867 46.4729C80.867 46.4572 80.855 46.4443 80.8513 46.4286C80.8476 46.4129 80.8513 46.3991 80.8448 46.3843C80.7737 46.0725 80.7461 45.7523 80.7627 45.4329C80.7786 45.0804 80.8541 44.7331 80.986 44.4058C81.0192 44.3265 81.0524 44.248 81.0912 44.1742C81.1133 44.1318 81.1401 44.0939 81.1641 44.0524C81.1862 44.0137 81.2075 43.9749 81.2324 43.938C81.4621 43.5865 81.7901 43.3102 82.1755 43.1435L82.2447 43.1176C82.319 43.0837 82.3954 43.0547 82.4735 43.0309C83.0918 42.8805 83.7239 43.0447 84.2564 43.4277C84.4112 43.536 84.5547 43.6596 84.6846 43.7968C84.6956 43.8079 84.7049 43.8199 84.7159 43.8309C85.0885 44.2499 85.3513 44.7546 85.481 45.3L85.6065 45.815C85.6484 46.3081 85.6245 46.8046 85.5354 47.2914C85.4221 47.8945 85.2726 48.4901 85.0878 49.0752C84.9372 49.529 84.9446 50.0205 85.1091 50.4696C85.2508 50.8165 85.459 51.1325 85.7218 51.3997C85.8778 51.5695 86.0494 51.7338 86.2266 51.8962C86.5034 52.1546 86.8024 52.4102 87.0719 52.6852C87.1346 52.7489 87.1964 52.8144 87.2564 52.8808C87.8101 53.5037 87.763 53.9273 87.5849 54.265C87.4262 54.5686 87.1669 54.8058 87.1457 55.0568C87.1457 55.1085 87.1457 55.1491 87.1457 55.2007C87.1125 56.5914 88.3647 56.7095 88.1884 57.8972C88.147 58.1499 88.0686 58.3952 87.9559 58.6253C88.0999 58.5435 88.2389 58.4533 88.3721 58.3549C88.5387 58.2335 88.6877 58.0897 88.815 57.9276C89.688 56.8147 88.1691 55.8439 88.4773 55.0134C88.4867 54.9792 88.4991 54.9459 88.5142 54.9138C89.0836 53.8941 89.6861 52.5892 88.5142 51.2715C88.4487 51.1976 88.3832 51.1257 88.3176 51.0546C87.3681 50.0202 86.5265 49.2468 87.4594 48.2705C88.4579 47.2278 88.5871 46.0881 87.6818 44.4105C87.5899 44.238 87.5137 44.0576 87.4539 43.8715C87.4474 43.8512 87.4401 43.83 87.4336 43.8088C87.3849 43.6481 87.3482 43.484 87.3238 43.3179C87.238 42.7019 87.2875 42.0746 87.4687 41.4796C87.4853 41.4335 87.4954 41.3874 87.5139 41.3394C87.5268 41.3089 87.5351 41.2776 87.548 41.2471C88.0397 40.1301 88.6419 39.0652 89.3456 38.0681C89.5619 37.7823 89.8187 37.5296 90.1079 37.3178C90.5259 37.029 90.9292 36.957 91.3998 36.993C93.2703 37.1323 92.4509 34.5679 93.7169 34.6436C94.983 34.7192 95.5109 35.3338 96.7493 35.2221C97.9876 35.1105 98.0919 33.5925 98.031 32.3855C98.0975 32.4012 98.1639 32.4251 98.2303 32.4454C100.076 33.0222 101.751 35.3892 102.532 36.6488C102.735 36.9773 102.875 37.2237 102.943 37.3474L102.951 37.3612C103.005 37.4793 103.061 37.5937 103.114 37.7128C103.199 37.9084 103.277 38.1096 103.357 38.3098C103.425 38.4778 103.496 38.6448 103.56 38.8155C103.633 39.0139 103.701 39.2151 103.77 39.4153C103.832 39.5934 103.894 39.7706 103.954 39.9506C104.019 40.1536 104.078 40.3575 104.139 40.5624C104.193 40.7423 104.248 40.9223 104.298 41.1031C104.355 41.3145 104.408 41.5249 104.461 41.7362C104.506 41.9134 104.553 42.0887 104.594 42.2659C104.626 42.4043 104.657 42.5427 104.686 42.6793C104.716 42.8159 104.754 42.9764 104.785 43.1333C104.798 43.1933 104.813 43.2533 104.825 43.3132L104.88 43.5735C104.893 43.6443 104.903 43.7158 104.909 43.7876C104.909 43.8217 104.919 43.8512 104.922 43.8854C104.922 43.8887 104.922 43.8922 104.922 43.8955C104.922 43.8995 104.922 43.9035 104.922 43.9075C105.112 45.087 105.227 46.2774 105.265 47.4714C105.287 48.0814 105.278 48.6498 105.255 49.2016C106.154 48.3462 105.92 46.9731 105.901 46.4148C105.875 45.6627 106.188 45.0149 106.639 44.4889C107.008 44.0543 107.241 43.1361 106.573 42.1348C106.457 41.9621 106.409 41.7525 106.438 41.5462C106.466 41.34 106.57 41.1517 106.729 41.0173C107.207 40.5975 107.52 39.9506 106.788 39.1523C106.599 38.9525 106.394 38.7674 106.177 38.5987C105.568 38.1373 105.54 37.662 105.507 36.3166C105.473 34.9711 104.555 34.7746 103.99 34.7118C104.309 33.8546 104.042 32.4547 102.932 32.0597L101.825 31.6638C101.825 31.6638 101.908 30.4642 101.019 29.8561C100.13 29.2479 99.4143 29.965 98.7342 29.8681C98.0541 29.7712 97.9166 29.3827 96.6902 29.0311C96.0682 28.853 95.4758 29.14 95.0402 29.4657C94.6554 29.1492 94.0408 28.7865 93.2721 28.8668C91.9535 29.0043 91.6849 29.9197 91.6849 29.9197C91.6849 29.9197 90.6625 29.3605 89.6834 29.7592C88.7043 30.1578 89.0909 30.6691 88.2069 30.7493C87.3229 30.8296 86.0485 30.6349 85.5686 32.0025C85.5011 32.1952 85.4465 32.3922 85.4053 32.5922C85.0063 32.5557 84.6049 32.5538 84.2056 32.5866C83.1333 32.69 82.7209 33.1283 82.4311 34.1397C82.289 34.6343 82.1986 35.176 81.2813 35.6383C80.4868 36.0379 80.1841 36.6128 80.3465 37.6639C80.1722 37.7389 80.0051 37.8297 79.8473 37.9352C79.6307 38.0792 79.4294 38.2449 79.2465 38.4298C78.105 39.5759 78.7851 40.8291 79.1302 41.3172C77.2773 42.7513 78.2997 45.0269 79.288 45.8039C79.0112 46.8282 79.1875 47.5129 79.5178 47.9697C79.4618 47.9474 79.4041 47.9295 79.3453 47.9162C79.1875 47.8843 79.025 47.8843 78.8672 47.9162C78.6827 47.9534 78.5091 48.0323 78.3597 48.1469C78.0579 48.0127 77.7321 47.9408 77.4018 47.9356L77.2551 46.5089L76.0333 35.1769L75.0782 26.3125L74.8014 23.7287C74.785 23.6079 74.7949 23.4849 74.8306 23.3683C74.8663 23.2517 74.9268 23.1442 75.008 23.0532C75.0892 22.9622 75.1892 22.89 75.3011 22.8414C75.4129 22.7928 75.534 22.769 75.6559 22.7717H105.974C105.998 22.7717 106.022 22.7847 106.046 22.7865C106.294 22.807 106.527 22.9117 106.707 23.0831C106.886 23.2546 107.002 23.4824 107.034 23.7287L111.45 64.7083C112.845 65.2159 114.311 66.0123 115.724 66.9111L113.193 43.4258Z" fill="#27207C"/>
<path d="M106.103 22.7584H75.2563C74.7177 22.7584 74.2971 23.2241 74.3519 23.76L80.9252 88.0317C80.9726 88.4955 81.3633 88.8483 81.8296 88.8483H113.041C113.582 88.8483 114.003 88.3792 113.945 87.8416L107.007 23.5699C106.957 23.1083 106.567 22.7584 106.103 22.7584Z" fill="#00D3B8"/>
<path d="M95.2593 48.4181L92.5969 48.6704L92.3782 46.3628C90.4437 46.2627 88.8905 45.6191 87.7185 44.4319L90.1018 41.6995C90.556 42.183 91.107 42.5654 91.7189 42.8216C92.3304 43.0867 92.9992 43.1921 93.6626 43.1279C94.1446 43.1063 94.6067 42.9294 94.98 42.6238C95.1282 42.501 95.2438 42.3437 95.3168 42.1657C95.3897 41.9877 95.4178 41.7945 95.3984 41.6031C95.3831 41.4422 95.3338 41.2863 95.2537 41.1459C95.1561 40.9867 95.0249 40.8507 94.8693 40.7474C94.6939 40.6218 94.5296 40.5098 94.3781 40.413C94.1697 40.2867 93.9499 40.18 93.7217 40.0942C93.435 39.9786 93.2025 39.8889 93.0242 39.8251C92.8464 39.7602 92.5757 39.6649 92.2144 39.5438C91.853 39.4227 91.5924 39.3297 91.4378 39.2691C88.9548 38.3719 87.6312 37.0574 87.467 35.3256C87.3619 34.2161 87.6227 33.2698 88.2494 32.4866C88.876 31.7035 89.7633 31.1452 90.9111 30.8119L90.709 28.6793L93.3715 28.427L93.5691 30.5126C95.2047 30.6105 96.5543 31.147 97.618 32.1221L95.2228 34.8327C94.3531 34.006 93.4304 33.6383 92.4548 33.7297C92.068 33.7509 91.6957 33.8833 91.3823 34.1109C91.2524 34.2081 91.1508 34.3383 91.0882 34.488C91.0257 34.6377 91.0043 34.8014 91.0264 34.9622C91.0454 35.1579 91.1259 35.3426 91.2563 35.4898C91.4386 35.6835 91.6585 35.8379 91.9026 35.9436C92.2007 36.0864 92.4809 36.2087 92.7435 36.3102C93.006 36.4118 93.3966 36.5541 93.9154 36.7371C94.4314 36.9204 94.8533 37.0766 95.18 37.2108C96.3277 37.67 97.2236 38.2265 97.8676 38.8806C98.5172 39.5472 98.9095 40.4224 98.9748 41.3508C99.0385 41.8883 98.9936 42.4331 98.8429 42.9529C98.6922 43.4727 98.4387 43.957 98.0974 44.3771C97.4033 45.2418 96.3847 45.8349 95.0417 46.1562L95.2593 48.4181Z" fill="white"/>
<rect x="82.5122" y="55.2735" width="24.0327" height="4.50613" rx="2.25306" transform="rotate(-0.527609 82.5122 55.2735)" fill="white"/>
<rect x="84.0134" y="65.7878" width="24.0327" height="4.50613" rx="2.25306" transform="rotate(-0.527609 84.0134 65.7878)" fill="white"/>
<rect x="84.7646" y="77.0531" width="24.0327" height="4.50613" rx="2.25306" transform="rotate(-0.527609 84.7646 77.0531)" fill="white"/>
<path d="M71.4703 32.0966C69.9228 31.5217 68.2174 31.8982 67.2494 33.1689C66.0572 34.7376 66.4078 37.0815 68.0458 38.5054L72.5869 42.4485L71.4703 32.0966Z" fill="#B63848"/>
<path d="M113.193 43.4257L115.725 66.9137C114.309 66.0149 112.846 65.2186 111.452 64.711C110.216 64.2607 109.035 64.0328 107.994 64.1573C105.902 64.4083 103.879 65.4779 102.037 66.8067C101.73 67.0282 101.428 67.2558 101.132 67.4896C99.2208 68.9956 97.546 70.6861 96.254 71.907C95.9606 72.1838 95.6819 72.4413 95.4291 72.66C95.0637 72.976 94.7836 73.3787 94.6142 73.831C94.0449 75.3417 94.8089 77.1771 96.5466 77.5518C97.2752 77.701 98.0273 77.6919 98.7521 77.525C99.1134 77.4453 99.4686 77.3401 99.8151 77.2103C100.047 77.1264 100.277 77.035 100.505 76.9335C103.017 75.8326 105.287 73.9685 107.316 75.0168C109.519 76.1556 108.864 81.9987 110.277 87.9729C110.771 90.0612 111.522 92.1634 112.732 94.0883H88.5542C94.1611 98.3332 103.016 99.4157 105.316 105.955C106.668 109.797 107.377 112.74 107.75 114.68C113.437 108.681 128.659 102.539 137.409 102.9C129.444 82.1492 126.705 66.7864 124.809 60.288C122.764 53.2526 113.194 43.4266 113.193 43.4257Z" fill="#B63848"/>
<path d="M78.0112 76.0532C78.8518 75.2596 79.3142 74.084 79.1739 72.7699C78.9552 70.7278 77.3551 69.0252 75.3987 68.5638L75.3729 68.3174C77.1548 67.8173 78.3258 66.1433 78.1136 64.1491C78.0523 63.5958 77.8916 63.0581 77.6393 62.5619C77.0734 61.4441 76.1119 60.5767 74.9419 60.1285C74.7892 60.0718 74.6336 60.0228 74.4759 59.9818L73.9785 55.3742C73.9785 55.3742 71.9161 57.6517 69.969 61.6991C69.9339 61.772 69.8988 61.8403 69.8638 61.915C69.5174 62.6064 69.3789 63.3834 69.4651 64.1519C69.5821 65.1648 70.0192 66.1139 70.7127 66.8612C70.208 69.6702 70.5217 72.7672 70.5217 72.7672C70.6721 74.1763 71.4833 75.4239 72.6109 76.2129C71.7703 77.0065 71.307 78.1812 71.4482 79.4962C71.7038 81.8844 73.8475 83.8204 76.2357 83.8204C76.504 83.82 76.7716 83.7938 77.0349 83.742C78.9967 83.3636 80.3228 81.6085 80.0967 79.4971C79.9491 78.0899 79.1388 76.8422 78.0112 76.0532Z" fill="#B63848"/>
<path d="M72.3669 15.0991V15L72.2402 15.1046L72.3669 15.0991Z" fill="white"/>
<path d="M66.54 21.4358V21.3629L66.468 21.4395L66.54 21.4358Z" fill="white"/>
</svg>
