<svg width="200" height="140" viewBox="0 0 200 140" fill="none" xmlns="http://www.w3.org/2000/svg">
<path d="M108.776 129.756C80.246 134.863 53.0965 123.469 42.5127 109.718C7.11249 63.7224 46.5645 25.6196 88.0688 15.0291C128.103 4.81367 155.748 28.6458 161.5 59.5C167 88.9999 137.306 124.648 108.776 129.756Z" fill="#DCDDFC"/>
<mask id="mask0_782_30355" style="mask-type:alpha" maskUnits="userSpaceOnUse" x="33" y="13" width="128" height="119">
<path d="M42.5126 109.844C31.9289 96.0746 30.5484 55.5532 36.5305 44.1442C43.4331 32.3419 48.0344 25.2604 88.0687 15.0317C128.103 4.80301 144.669 35.4892 158.014 55.9466C171.358 76.404 137.306 124.794 108.776 129.908C80.2459 135.022 53.0964 123.613 42.5126 109.844Z" fill="#DCDDFC"/>
</mask>
<g mask="url(#mask0_782_30355)">
<path d="M60.0596 132.829L69.6942 106.858L104.463 111.884L107.395 143.721L87.7069 144.14L85.1935 125.708L76.8155 140.37L60.0596 132.829Z" fill="#F9F9FC"/>
<path d="M91.736 51.9736C80.9569 51.0737 71.5252 52.9484 68.6807 56.5477C62.1683 65.0211 63.6654 85.1174 63.6654 91.9411C63.6654 93.2159 60.5964 98.09 63.2911 100.415C69.5041 105.664 108.653 99.5897 108.653 99.5897C108.653 99.5897 117.037 67.6456 114.417 62.6966C111.797 57.5225 105.809 53.1734 91.736 51.9736Z" fill="#27207C"/>
<path d="M91.7358 38.776C91.7358 38.776 91.2118 36.1515 89.2656 37.5012C87.3194 38.851 88.4422 44.025 89.8644 44.6249C91.2867 45.2248 91.8855 43.4251 91.8855 43.4251L91.7358 38.776Z" fill="#FA7C73"/>
<path d="M108.429 38.1011C108.654 40.5756 107.755 41.8504 107.755 42.7502C107.755 43.6501 108.13 46.1996 107.381 48.2242C106.558 50.4738 103.713 53.6982 101.018 54.2231L97.3505 64.8711L92.934 66.5208L90.9129 54.673L91.886 51.8235C92.0358 51.2986 91.9609 50.6988 91.6615 50.2488C90.9878 49.274 90.0895 47.1744 90.4638 42.8252L91.1375 38.3261L95.7785 33.302L104.911 34.2018C104.761 34.4268 108.279 36.9013 108.429 38.1011Z" fill="#FA7C73"/>
<path d="M91.1366 37.2762C91.3612 34.5767 89.5647 31.1274 95.7776 29.3277C95.7776 29.3277 97.7239 25.2785 102.44 27.528C102.964 26.3283 106.482 22.579 112.545 26.4782C117.186 29.4777 115.689 34.1268 114.267 34.5767C114.267 34.5767 115.24 36.6013 113.294 37.3512C113.294 37.3512 114.117 39.9757 111.123 40.9505C109.401 41.4754 107.38 40.1257 107.23 38.9259C107.23 38.9259 105.434 38.7759 105.434 37.2762C105.434 37.2762 101.242 38.1761 98.8467 37.2762C96.7508 36.5264 95.6279 34.3518 95.6279 34.3518C95.6279 34.3518 93.532 39.6008 92.0349 40.1257C92.0349 40.1257 91.2864 40.6506 91.2115 41.4754L90.8372 43.2001L90.3132 43.1251L91.1366 37.2762Z" fill="#27207C"/>
<path d="M98.6981 40.2758C98.6981 40.4257 98.6233 40.5757 98.4736 40.6507C98.0244 40.3507 97.2759 40.0508 96.4525 39.8258C96.0033 39.6759 95.5542 39.6759 95.1799 39.6009C95.1799 39.5259 95.1799 39.4509 95.1799 39.4509C95.3296 38.776 96.2279 38.4011 97.201 38.6261C98.249 38.851 98.9227 39.6009 98.6981 40.2758Z" fill="#27207C"/>
<path d="M106.706 41.7754C106.706 41.8504 106.706 41.9253 106.631 41.9253C106.257 41.7754 105.808 41.7004 105.359 41.6254C104.535 41.4754 103.787 41.4754 103.188 41.5504C103.113 41.4004 103.113 41.2505 103.188 41.1005C103.338 40.4256 104.236 39.9757 105.209 40.2007C106.182 40.3506 106.856 41.1005 106.706 41.7754Z" fill="#27207C"/>
<path d="M101.018 54.2981C101.018 54.2981 98.3237 55.048 94.9552 52.7984C93.5329 51.8236 95.7786 55.5729 97.7248 56.2477C99.0722 56.6977 100.27 56.3977 100.27 56.3977L101.018 54.2981Z" fill="#BD4549"/>
<path d="M96.0032 46.6496C96.0032 46.6496 97.3506 47.2495 97.9494 47.0245C98.4734 46.7996 99.2968 46.5746 99.5213 46.6496C99.7459 46.7246 100.045 47.1745 100.345 47.2495C100.644 47.2495 101.168 46.7996 101.542 46.9495C101.917 47.0995 102.141 47.5494 102.291 47.6994C102.59 47.8494 103.189 47.6994 103.189 47.6994C103.189 47.6994 102.59 49.4991 99.6711 49.3491C97.7248 49.1991 96.5272 48.0743 96.0032 46.6496Z" fill="#BD4549"/>
<path d="M99.2212 43.4252C98.9966 43.6502 99.5955 44.475 100.494 44.625C101.467 44.775 102.215 44.0251 102.141 43.8751C102.066 43.7252 101.617 43.9501 100.718 43.8002C100.045 43.7252 99.3709 43.2753 99.2212 43.4252Z" fill="#BD4549"/>
<path d="M72.124 81.368C69.5041 88.8666 69.2795 95.9153 70.7018 100.19C70.7018 100.19 68.007 104.014 69.2047 106.263C72.4983 112.262 103.788 116.012 106.557 111.437C108.204 108.663 106.707 106.038 106.707 106.038C113.743 101.464 113.294 89.2416 113.294 89.2416C115.764 100.264 123.849 105.139 127.068 104.614C130.735 104.089 135.9 97.49 137.697 95.2404C141.065 90.8912 145.557 86.4671 146.829 82.2679C146.829 82.2679 148.626 80.8431 149.374 78.8185C150.273 76.344 143.685 73.4195 141.365 74.6943C139.269 75.8191 138.895 78.8935 138.895 78.8935C135.152 82.7178 131.035 83.9175 128.49 86.992C126.768 81.743 120.929 75.5941 120.929 75.5941C120.031 70.57 116.363 66.6708 111.797 64.8711C107.306 63.1464 103.264 62.6965 103.264 62.6965C103.264 62.6965 106.408 57.7474 100.269 56.4727L99.0718 60.072L97.7992 63.8213C97.7992 63.8213 96.9758 56.4727 90.9126 54.898C86.9453 53.8482 84.9991 57.4475 85.0739 59.4721C85.0739 59.4721 83.1277 59.2472 80.9569 59.1722C77.5884 59.0222 67.8573 60.222 64.2642 69.0703C64.2642 69.0703 54.7577 76.194 51.0149 82.4928C47.347 88.7916 44.2031 98.1649 44.2031 98.1649C44.2031 98.1649 39.7867 101.464 40.8347 103.939C41.8826 106.413 46.8979 108.438 48.2453 107.988C50.1915 107.238 50.7904 105.813 51.6886 103.639C55.7308 101.389 58.4256 97.34 61.4198 92.391C62.3929 90.8163 63.6654 89.4665 65.1625 88.3417C69.1298 85.4173 72.124 81.368 72.124 81.368Z" fill="#00D3B8"/>
<path d="M67.1837 96.8151L64.1895 94.5656C72.5732 83.4676 75.268 74.0194 76.0914 68.0955C76.9896 61.7217 75.8668 57.8224 75.792 57.8224C75.792 57.8224 79.6844 58.4223 79.8341 60.222C80.5827 66.0709 80.2833 79.3434 67.1837 96.8151Z" fill="#27207C"/>
<path d="M111.797 98.8399C114.491 86.9921 113.144 76.869 111.572 71.695C109.85 66.071 107.455 63.1466 107.455 63.1466L110.3 60.747C110.749 61.2719 119.956 73.8696 116.213 95.9154C115.839 97.9401 113.893 99.2898 111.797 98.8399Z" fill="#27207C"/>
<path d="M143.402 55.0986L141.796 56.3287L145.344 60.9739L146.949 59.7438L143.402 55.0986Z" fill="#FF00BF"/>
<path d="M145.93 64.2713L143.235 66.2209C143.011 67.5707 143.759 69.2204 144.283 70.1202C144.583 70.6451 144.583 71.32 144.283 71.8449L142.936 74.3944C143.684 76.344 145.93 76.9439 148.924 76.719L150.047 72.7447C154.763 71.8449 155.062 64.9462 154.763 63.7464L145.93 64.2713Z" fill="#FA7C73"/>
<path d="M152.967 67.5705L151.245 68.9202C150.572 69.4451 149.674 69.2952 149.15 68.6203L144.958 63.1463C144.434 62.4714 144.583 61.5716 145.257 61.0467L146.979 59.697C147.652 59.1721 148.551 59.322 149.075 59.9969L153.267 65.4709C153.791 66.1458 153.641 67.0456 152.967 67.5705Z" fill="#27207C"/>
<path d="M145.107 60.3719C144.808 58.5723 142.787 59.0972 143.161 59.5471C143.61 59.997 143.835 63.5214 143.161 66.2209L145.856 64.2712C145.706 62.8465 145.407 61.8717 145.107 60.3719Z" fill="#FA7C73"/>
<path d="M150.198 59.397C149.524 60.2968 148.626 62.7713 147.353 63.6712C146.755 64.1211 147.952 64.796 148.626 64.346C148.626 64.346 148.177 64.721 147.728 65.0959C147.279 65.3958 147.877 66.4457 149.524 65.4708C149.749 65.3209 150.198 65.0209 150.198 65.0209C150.198 65.0209 149.599 65.5458 149.15 65.7708C148.252 66.2957 149.749 66.8956 150.497 66.4456C150.946 66.2207 152.743 64.646 152.743 64.646C152.743 64.646 150.872 66.1457 150.348 66.6706C149.973 67.0455 150.797 67.4205 151.62 67.1205C152.743 66.7456 153.417 66.2957 153.716 65.9957C153.716 65.9957 154.465 65.3209 154.689 64.496C154.689 64.346 154.839 63.8211 154.614 63.5212C154.315 63.1463 153.791 63.3712 153.791 63.3712C153.941 62.9963 153.866 62.3964 153.716 62.0965C153.491 61.7965 152.893 61.9465 152.893 61.9465C152.893 61.9465 153.042 61.1216 152.668 60.5967C152.444 60.2968 151.77 60.5218 151.77 60.5218C151.845 60.1468 151.845 59.6219 151.545 59.397C151.021 58.7971 150.422 59.172 150.198 59.397Z" fill="#FA7C73"/>
<path d="M74.2939 59.922C75.3419 59.622 76.1653 59.772 76.315 61.2717V57.9724L74.2939 59.922Z" fill="#27207C"/>
<path d="M106.557 63.2964C107.83 63.8213 108.578 64.7211 108.952 65.471L109.252 62.6965L106.557 63.2964Z" fill="#27207C"/>
<path d="M42.4059 119.761C42.1814 120.436 42.9299 121.411 43.3791 120.886C43.903 120.211 44.5767 118.786 45.1756 118.111C45.999 117.136 46.1487 116.087 46.1487 115.337C46.2235 113.837 45.9241 113.312 45.6247 112.412C45.3253 111.287 45.3253 109.788 45.8493 108.738L47.6458 106.113C47.7955 105.889 47.8704 105.589 47.7955 105.289C47.4212 103.639 45.6996 102.214 43.1545 102.664C42.7802 102.739 42.4808 102.964 42.2562 103.264L40.4597 106.038C34.621 110.163 35.2947 109.938 35.7439 115.487C35.8187 116.537 35.5193 118.186 35.8187 118.861C36.2678 119.761 37.0164 120.211 37.3907 120.136L39.1872 114.962C39.786 114.212 42.4808 115.937 43.3042 117.361L42.4059 119.761Z" fill="#FA7C73"/>
<path d="M40.6096 123.135L37.316 122.01C37.0165 121.935 36.8668 121.56 36.9417 121.26L39.1873 114.662C39.6365 113.462 40.9839 112.787 42.1815 113.237C43.3792 113.687 44.0529 115.037 43.6038 116.236L41.3581 122.835C41.2833 123.06 40.909 123.21 40.6096 123.135Z" fill="#27207C"/>
</g>
</svg>
