<svg width="200" height="140" viewBox="0 0 200 140" fill="none" xmlns="http://www.w3.org/2000/svg">
<path d="M34.6629 46.2037C9.94196 86.9932 45.1682 108.624 53.2025 111.714C83.2798 115.834 145.288 123.333 152.705 120.366C161.975 116.658 174.953 98.1176 173.717 68.4524C171.069 4.90184 61.9909 1.11254 34.6629 46.2037Z" fill="#DCDDFC"/>
<path d="M141.249 90.924C142.428 90.924 143.384 90.4184 143.384 89.7969C143.384 89.1753 142.428 88.6671 141.249 88.6671C140.069 88.6671 139.113 89.1727 139.113 89.7969C139.113 90.421 140.077 90.924 141.249 90.924Z" fill="#27207C"/>
<path d="M158.362 108.29C158.362 108.29 153.516 109.501 142.56 110.16C131.604 110.818 104.286 114.558 104.286 114.558L59.0595 102.504L55.5568 98.1136L49.9683 92.3408C49.9683 92.3408 48.6515 72.1885 52.7968 58.794C56.8999 54.6171 80.5733 53.9588 98.9821 53.9588C117.391 53.9588 125.942 56.3764 129.671 59.8923C133.401 63.4081 143.474 74.9749 143.474 74.9749C148.715 78.6619 153.218 81.0532 156.152 84.6112C157.534 86.2657 158.538 88.2016 159.094 90.2839C160.187 94.3607 160.092 99.9414 158.362 108.29Z" fill="white"/>
<path d="M106.717 111.806C103.541 109.941 101.766 99.1644 98.6109 95.7724C95.4558 92.3803 89.3011 92.2275 89.9516 102.356C90.5599 108.121 89.2432 108.453 84.9978 107.795C81.5241 107.255 68.7274 103.781 64.0291 102.499C63.5252 102.363 63.0691 102.089 62.7123 101.709C62.3587 101.32 62.1198 100.842 62.0223 100.326C61.4061 97.0497 59.8022 90.1075 57.0712 88.8592C54.6008 87.732 53.737 90.5262 53.4421 92.4066C53.4058 92.6196 53.3211 92.8214 53.1945 92.9965C53.068 93.1707 52.9019 93.3125 52.7099 93.41C52.5178 93.5094 52.3046 93.5608 52.0883 93.5601C51.8725 93.5604 51.6596 93.51 51.4669 93.4127C50.9113 93.1464 50.4137 92.7732 50.0026 92.3144C50.0026 97.2761 50.682 99.8597 52.8179 100.534L53.766 100.908C53.8972 102.573 54.117 104.23 54.4244 105.872C49.9473 106.367 43.0999 107.955 53.4421 111.856C63.7842 115.756 89.438 123.478 118.365 123.478C147.293 123.478 158.133 119.875 153.872 117.571L149.629 115.261C149.629 115.261 151.928 112.627 152.423 111.139C157.374 110.976 158.259 109.991 158.422 108.34C154.311 109.657 156.3 101.851 152.202 102.019C148.104 102.188 131.9 103.807 126.48 103.707C121.06 103.607 116.83 111.89 113.462 112.301C111.202 112.51 108.922 112.342 106.717 111.806Z" fill="#27207C"/>
<path d="M57.4088 106.602C58.6335 106.602 59.6289 103.934 59.6289 100.645C59.6289 97.3552 58.6335 94.6874 57.4088 94.6874C56.1842 94.6874 55.186 97.3552 55.186 100.645C55.186 103.934 56.1816 106.602 57.4088 106.602Z" fill="white"/>
<path d="M95.1737 119.388C99.5876 119.156 102.914 114.155 102.606 108.219C102.298 102.283 98.4684 97.6579 94.0545 97.887C89.6406 98.1162 86.3143 103.117 86.6251 109.056C86.9359 114.995 90.7625 119.617 95.1737 119.388Z" fill="#27207C"/>
<path d="M96.2219 116.414C99.4507 116.246 101.887 112.582 101.66 108.234C101.434 103.886 98.6317 100.497 95.4003 100.665C92.1689 100.834 89.7354 104.497 89.9619 108.845C90.1884 113.193 92.9905 116.583 96.2219 116.414Z" fill="white"/>
<path d="M141.894 74.9957C141.894 74.9957 136.571 76.7971 122.848 76.8261C107.212 76.8261 98.0919 75.9253 98.0919 75.9253C98.0919 75.9253 93.462 64.7457 90.7441 60.2686C114.684 58.2829 128.457 60.3582 128.457 60.3582L141.894 74.9957Z" fill="#27207C"/>
<path d="M94.5552 79.2939C94.5552 79.2939 88.4716 62.4889 85.6774 60.5164C82.8831 58.5438 74.1739 59.2681 72.5252 59.3971C70.8766 59.5261 70.7212 68.9123 70.7212 70.2317C70.7212 71.5512 73.5523 77.3213 77.7951 79.9233C82.0378 82.5253 93.4097 84.4004 93.4097 84.4004L94.5552 79.2939Z" fill="#27207C"/>
<path d="M104.998 85.7382C105.04 85.3929 105.158 85.0612 105.343 84.7665C105.526 84.4704 105.774 84.2193 106.067 84.0317C106.36 83.8438 106.691 83.7224 107.036 83.6761C107.381 83.6311 107.732 83.6626 108.063 83.7683C110.976 84.698 115.398 86.0806 116.962 86.4336C119.374 86.9787 122.005 88.1928 122.99 91.2688C122.99 91.2688 116.962 92.2564 114.168 92.0352C111.895 91.8588 107.091 88.9592 105.403 87.882C105.216 87.7637 105.066 87.5947 104.971 87.3948C104.878 87.1944 104.843 86.9716 104.871 86.7522L104.998 85.7382Z" fill="#00D3B8"/>
<path d="M159.039 90.2628C158.814 90.3722 158.576 90.4511 158.33 90.4972C156.807 90.6158 155.277 90.6158 153.753 90.4972C153.64 88.4114 153.316 87.2 153.753 86.5468C154.466 85.8224 155.243 85.1631 156.073 84.5769C157.465 86.233 158.477 88.1737 159.039 90.2628Z" fill="#00D3B8"/>
<path d="M82.6362 83.6553V77.4374C82.638 76.8951 82.8332 76.3712 83.1867 75.96C83.541 75.55 84.0307 75.2809 84.5667 75.2014C85.8997 75.001 87.2622 75.1961 88.4855 75.7624L88.9332 75.9679C89.482 76.2224 89.947 76.628 90.2737 77.1372C90.5983 77.6482 90.771 78.241 90.7714 78.8464V85.5752L82.6362 83.6553Z" fill="white"/>
<path d="M147.647 85.1941C147.7 85.1774 147.747 85.1439 147.781 85.0986C147.814 85.0532 147.832 84.9984 147.832 84.9421C147.832 84.8858 147.814 84.8309 147.781 84.7856C147.747 84.7403 147.7 84.7068 147.647 84.6901C147.593 84.7068 147.546 84.7403 147.512 84.7856C147.479 84.8309 147.461 84.8858 147.461 84.9421C147.461 84.9984 147.479 85.0532 147.512 85.0986C147.546 85.1439 147.593 85.1774 147.647 85.1941Z" fill="white"/>
<path d="M117.76 35.9419L115.932 36.9679V40.4816L117.76 41.8353L121.756 42.1702V44.3554C121.21 44.8731 120.559 45.2711 119.846 45.5231C119.132 45.775 118.373 45.8752 117.618 45.8171C115.139 45.6299 113.001 43.819 112.01 41.3493L96.526 39.992C95.5464 42.3754 93.4116 43.9126 90.9369 43.7074C87.5192 43.423 84.7447 39.8696 84.7228 35.7655C84.7009 31.6613 87.4752 28.648 90.893 29.0332C93.3677 29.3104 95.5098 31.2616 96.5004 33.8321L111.985 35.3838C112.964 33.0941 115.095 31.672 117.574 31.9312C119.185 32.1357 120.663 32.9221 121.719 34.1382V36.3235L117.76 35.9419ZM90.9479 39.7796C92.5307 39.9236 93.8173 38.5196 93.81 36.6511C93.8027 34.7826 92.5161 33.1265 90.9296 32.9609C89.3432 32.7953 88.0601 34.1958 88.0638 36.0894C88.0674 37.9831 89.3578 39.6356 90.9479 39.7796Z" fill="#27207C"/>
</svg>
