<svg width="200" height="141" viewBox="0 0 200 141" fill="none" xmlns="http://www.w3.org/2000/svg">
<mask id="mask0_782_31205" style="mask-type:alpha" maskUnits="userSpaceOnUse" x="37" y="11" width="126" height="119">
<path d="M160.391 100.417C156.053 117.308 104.255 136.247 76.812 127.895C10.5017 107.714 35.818 22.8274 92.4999 12.1995C140.909 4.55576 172.551 53.0653 160.391 100.417Z" fill="#EBECFE"/>
</mask>
<g mask="url(#mask0_782_31205)">
<ellipse cx="100.897" cy="62.5819" rx="90.6882" ry="70.5352" fill="#DCDDFC"/>
<path d="M104.749 46.0876C104.54 47.0526 104.004 52.5769 103.727 53.4233C102.994 55.6804 101.854 58.942 102.74 61.9271C103.27 63.6989 106.289 64.7033 107.045 63.0161L107.734 61.4869C108.264 62.3113 108.937 63.0353 109.72 63.6256C111.153 64.6808 114.054 63.6933 113.67 61.9327L111.881 54.2302C111.633 53.6659 111.627 48.4915 111.396 47.9498C111.644 46.889 111.858 45.9128 112.033 45.0043C111.442 45.1622 110.841 45.2771 110.233 45.3484C110.064 44.9873 109.895 44.6375 109.731 44.3046C109.405 44.7323 109.049 45.1359 108.665 45.5121C107.344 45.5778 106.032 45.7706 104.749 46.0876Z" fill="#942F39"/>
<path d="M73.624 54.8903C76.0222 52.6331 80.8242 43.7514 81.9979 42.1094C83.1716 40.4673 85.1636 37.1888 88.3292 37.1888C91.4948 37.1888 95.9075 37.1436 99.6769 37.2847C102.139 37.4062 104.579 37.8056 106.95 38.4754L108.384 43.3L81.4111 53.9084L74.5889 55.3304L73.624 54.8903Z" fill="#B63848"/>
<path d="M113.904 62.9372C113.742 62.9483 113.58 62.9483 113.418 62.9372L113.514 62.1134C114.134 62.1866 114.761 62.0875 115.328 61.8266C115.894 61.5657 116.378 61.1533 116.725 60.6351C117.032 60.1838 117.226 59.6649 117.289 59.1227L118.113 59.2131C118.038 59.8884 117.8 60.5353 117.419 61.0977C117.029 61.6693 116.504 62.1362 115.891 62.457C115.278 62.7778 114.595 62.9427 113.904 62.9372Z" fill="white"/>
<path d="M115.701 64.4877L119.021 63.3152L124.228 78.0591C124.267 78.1692 124.26 78.2902 124.21 78.3955C124.16 78.5008 124.07 78.5818 123.96 78.6207L121.475 79.4982C121.365 79.537 121.244 79.5306 121.138 79.4802C121.033 79.4299 120.952 79.3398 120.913 79.2297L115.706 64.4858L115.701 64.4877Z" fill="#FF00BF"/>
<path d="M117.403 60.8372L115.413 61.5399C115.093 61.653 114.925 62.0044 115.038 62.3247L115.04 62.33C115.153 62.6503 115.504 62.8182 115.824 62.7051L117.814 62.0024C118.135 61.8893 118.303 61.538 118.19 61.2177L118.188 61.2124C118.075 60.8921 117.723 60.724 117.403 60.8372Z" fill="#27207C"/>
<path d="M118.767 64.2069C118.315 62.0626 117.949 61.1654 113.688 60.6801C109.428 60.1948 108.841 60.9792 107.916 62.9655C106.99 64.9518 105.128 75.2951 106.437 77.3829C107.746 79.4707 115.234 80.3284 116.984 78.5904C118.733 76.8524 119.218 66.3568 118.767 64.2069Z" fill="#27207C"/>
<path d="M117.668 64.0823C117.216 61.9381 116.855 61.0408 112.561 60.5499C108.267 60.059 107.719 60.8547 106.794 62.8409C105.868 64.8272 104.001 75.1705 105.315 77.2584C106.63 79.3462 114.107 80.2038 115.862 78.4659C117.617 76.7279 118.125 66.2322 117.668 64.0823Z" fill="#27207C"/>
<path d="M113.03 61.8999L110.933 61.6607C110.595 61.6222 110.291 61.8646 110.252 62.2021L110.251 62.2077C110.213 62.5452 110.455 62.8499 110.793 62.8884L112.89 63.1277C113.227 63.1662 113.532 62.9239 113.57 62.5864L113.571 62.5808C113.61 62.2433 113.367 61.9385 113.03 61.8999Z" fill="#5B54F6"/>
<path d="M115.228 67.5867C115.2 65.7979 115.064 65.2563 111.543 64.8557C108.022 64.455 107.768 64.9459 107.339 66.6839C107.232 67.1184 107.108 67.8125 106.99 68.563C106.962 68.7241 106.997 68.8894 107.087 69.0256C107.177 69.1619 107.316 69.2587 107.475 69.2965C108.428 69.5229 109.395 69.6888 110.37 69.7931H110.567C112.079 69.9624 113.609 70.0808 114.444 70.1373C114.529 70.1434 114.615 70.1326 114.696 70.1056C114.777 70.0785 114.852 70.0358 114.916 69.9797C114.981 69.9236 115.033 69.8552 115.071 69.7787C115.11 69.7021 115.132 69.6189 115.138 69.5336C115.172 68.7436 115.228 68.0438 115.228 67.5867Z" fill="#5B54F6"/>
<path d="M114.461 70.4369H114.399C113.598 70.3805 112.035 70.2621 110.506 70.0928H110.314C109.328 69.986 108.35 69.8182 107.385 69.5905C107.159 69.5365 106.961 69.3991 106.831 69.2056C106.701 69.0121 106.649 68.7768 106.686 68.5467C106.815 67.7228 106.939 67.0625 107.041 66.6393C107.532 64.6643 108.04 64.2017 111.555 64.6023C115.071 65.003 115.454 65.5672 115.505 67.6042C115.505 68.05 115.505 68.7328 115.415 69.6018C115.391 69.8357 115.279 70.0518 115.102 70.2067C114.925 70.3616 114.696 70.4439 114.461 70.4369ZM109.625 64.9973C108.012 64.9973 107.882 65.5277 107.577 66.7521C107.476 67.1584 107.357 67.8017 107.233 68.6087C107.219 68.7017 107.24 68.7966 107.292 68.8748C107.344 68.9531 107.424 69.0091 107.515 69.0319C108.458 69.2515 109.414 69.4155 110.376 69.5229H110.568C112.086 69.6921 113.643 69.8106 114.439 69.867C114.538 69.8732 114.636 69.8399 114.711 69.7744C114.786 69.7089 114.832 69.6165 114.839 69.5172C114.901 68.6708 114.93 67.9993 114.924 67.5705C114.896 65.9397 114.89 65.4995 111.482 65.1158C110.866 65.0416 110.246 65.002 109.625 64.9973Z" fill="#27207C"/>
<path d="M110.776 70.1262C110.583 70.2803 110.456 70.5023 110.421 70.747C110.291 71.757 109.941 74.4995 109.857 76.1359C109.849 76.3309 109.917 76.5214 110.046 76.6676C110.175 76.8138 110.356 76.9043 110.551 76.9202C111.645 76.9935 113.807 76.9823 114.19 75.9835C114.6 74.305 114.866 72.5947 114.986 70.8711C114.995 70.7849 114.986 70.698 114.96 70.6152C114.934 70.5325 114.893 70.4558 114.837 70.3896C114.781 70.3233 114.713 70.2688 114.636 70.2294C114.558 70.19 114.474 70.1664 114.388 70.1601C113.62 70.1036 112.746 70.0529 111.465 69.9231C111.218 69.8986 110.971 69.9714 110.776 70.1262Z" fill="#5B54F6"/>
<path d="M111.396 77.2466C111.086 77.2466 110.798 77.2465 110.544 77.2127C110.272 77.1938 110.018 77.0682 109.839 76.8632C109.659 76.6581 109.568 76.3902 109.585 76.118C109.664 74.4872 110.002 71.7899 110.149 70.7065C110.189 70.3878 110.353 70.0978 110.606 69.8996C110.859 69.6979 111.182 69.6046 111.503 69.6401C112.564 69.7529 113.337 69.8036 114.02 69.8488H114.415C114.539 69.8571 114.66 69.8905 114.77 69.9467C114.881 70.003 114.979 70.081 115.058 70.1761C115.139 70.2705 115.199 70.3802 115.236 70.4985C115.273 70.6168 115.285 70.7412 115.273 70.8645C115.087 72.7548 114.765 75.2546 114.46 76.0502C114.099 77.0208 112.621 77.2466 111.396 77.2466ZM110.95 70.3623C110.811 70.4723 110.72 70.6322 110.696 70.8082C110.555 71.8859 110.211 74.5606 110.132 76.1688C110.127 76.2924 110.17 76.413 110.252 76.5055C110.334 76.598 110.449 76.6552 110.572 76.6653C111.955 76.7556 113.665 76.6201 113.958 75.9091C114.364 74.2534 114.624 72.5655 114.737 70.8645C114.743 70.8151 114.738 70.7649 114.724 70.7172C114.709 70.6696 114.685 70.6256 114.652 70.588C114.62 70.5496 114.581 70.5183 114.536 70.496C114.491 70.4736 114.442 70.4607 114.392 70.4582H113.997C113.315 70.4074 112.536 70.3567 111.464 70.2439C111.287 70.2065 111.102 70.241 110.95 70.3398V70.3623Z" fill="#27207C"/>
<path d="M110.398 70.8823C110.416 70.7441 110.407 70.6037 110.371 70.469C110.335 70.3343 110.272 70.2082 110.188 70.0976C110.103 69.987 109.997 69.8942 109.876 69.8245C109.755 69.7549 109.622 69.7098 109.484 69.6917C108.643 69.5732 108.028 69.4547 107.61 69.3531C107.518 69.33 107.421 69.3266 107.327 69.3431C107.233 69.3595 107.144 69.3956 107.065 69.4487C106.986 69.5019 106.918 69.5711 106.867 69.6518C106.817 69.7325 106.783 69.823 106.77 69.9174C106.502 71.627 106.376 73.3558 106.391 75.0862C106.516 75.9608 107.971 76.4518 109.083 76.6944C109.175 76.7141 109.271 76.7135 109.363 76.6928C109.455 76.672 109.542 76.6317 109.617 76.5743C109.692 76.5169 109.754 76.444 109.798 76.3605C109.842 76.277 109.868 76.1849 109.873 76.0906C109.941 74.6404 110.223 72.2535 110.398 70.8823Z" fill="#5B54F6"/>
<path d="M109.22 76.9936C109.153 76.9991 109.085 76.9991 109.017 76.9936C107.776 76.7227 106.258 76.1867 106.117 75.154C105.998 74.3076 106.246 71.8022 106.495 69.9118C106.511 69.7783 106.556 69.6498 106.626 69.5349C106.696 69.4201 106.79 69.3216 106.901 69.246C107.013 69.1708 107.14 69.1194 107.273 69.0952C107.406 69.0709 107.542 69.0743 107.674 69.1049C108.193 69.2291 108.803 69.3419 109.514 69.4378C109.865 69.4856 110.184 69.6698 110.402 69.9505C110.619 70.2313 110.718 70.5862 110.676 70.9389C110.507 72.2536 110.219 74.6744 110.146 76.1302C110.138 76.2649 110.102 76.3965 110.04 76.5162C109.978 76.6359 109.891 76.7409 109.784 76.8243C109.619 76.9392 109.422 76.9985 109.22 76.9936ZM107.443 69.6071C107.36 69.607 107.279 69.6327 107.211 69.6805C107.165 69.7129 107.126 69.7548 107.096 69.8034C107.067 69.852 107.049 69.9063 107.042 69.9627C106.772 71.6417 106.646 73.3407 106.664 75.0412C106.743 75.6055 107.64 76.0907 109.136 76.4124C109.189 76.4243 109.245 76.4243 109.298 76.4126C109.352 76.4009 109.402 76.3777 109.446 76.3446C109.49 76.3116 109.526 76.2692 109.551 76.2203C109.577 76.1715 109.591 76.1175 109.593 76.0624C109.666 74.5897 109.959 72.1521 110.157 70.826C110.181 70.6191 110.123 70.4109 109.995 70.2463C109.868 70.0817 109.681 69.9739 109.474 69.9457C108.835 69.8644 108.2 69.7495 107.573 69.6014L107.443 69.6071Z" fill="#27207C"/>
<path d="M96.3801 44.0905L92.0408 58.9198L100.313 58.8803L109.906 48.2831L106.43 42.787L96.3801 44.0905Z" fill="#942F39"/>
<path d="M76.1182 71.1978C76.1182 71.1978 83.8545 71.8298 88.2107 69.2454C92.567 66.661 98.1647 60.9616 98.1647 60.9616C98.1647 60.9616 95.7834 50.6749 98.4581 48.4967C101.765 45.7938 106.059 44.0333 106.691 44.7161C107.323 45.3989 108.672 47.1368 110.077 51.3407C110.805 53.5189 111.662 56.7578 114.027 58.603C114.335 58.8316 114.706 58.9614 115.09 58.9752C115.474 58.989 115.853 58.8862 116.177 58.6804C116.502 58.4745 116.756 58.1752 116.907 57.822C117.058 57.4687 117.098 57.0781 117.023 56.7014L115.533 48.9763C114.907 47.0521 114.297 45.3819 113.671 43.9373C113.671 43.9373 112.43 40.1622 110.658 37.8543C109.01 35.6988 107.097 35.7157 101.669 36.8781C101.031 36.9797 100.365 37.1151 99.66 37.2787C96.5113 37.7697 92.1325 39.265 90.1293 39.993C89.4289 40.2398 88.8152 40.6848 88.3631 41.2739C87.7367 42.0808 86.7549 43.3505 85.6997 44.7274C85.4796 44.9757 85.2708 45.2238 85.0677 45.4778C84.5034 46.2113 83.8883 47.0578 83.262 47.9268C82.7428 48.6096 82.2632 49.2529 81.8626 49.7946C80.5026 51.4874 77.9126 51.0246 76.1069 51.6679C71.5588 57.5195 63.7435 57.0907 63.7435 57.0907C53.5074 57.4462 -22.9809 59.3478 -33.7248 60.3917C-44.4688 61.4356 -30.6439 98.4863 -30.6439 98.4863C-30.6439 98.4863 -11.3793 102.769 19.0524 94.8524C37.3521 90.0955 69.7587 71.8015 76.1069 71.1808" fill="#B63848"/>
<path d="M113.417 62.9091C112.302 62.7816 111.284 62.2166 110.585 61.3383C109.887 60.46 109.566 59.3404 109.693 58.2255C109.757 57.6748 109.929 57.142 110.199 56.6579C110.469 56.1738 110.832 55.7477 111.267 55.4041C111.701 55.0573 112.199 54.7999 112.733 54.6468C113.266 54.4938 113.825 54.4481 114.376 54.5125C115.491 54.6414 116.508 55.2067 117.206 56.0847C117.905 56.9626 118.226 58.0815 118.101 59.1961L117.277 59.1058C117.329 58.6616 117.292 58.2114 117.169 57.7814C117.046 57.3513 116.839 56.9499 116.56 56.6003C116.005 55.8968 115.193 55.4423 114.303 55.3363C113.859 55.2844 113.409 55.3211 112.979 55.4441C112.549 55.5671 112.147 55.774 111.798 56.053C111.094 56.6084 110.64 57.4201 110.534 58.3101C110.481 58.7543 110.517 59.2046 110.64 59.6348C110.762 60.0651 110.969 60.4668 111.247 60.8167C111.526 61.1667 111.871 61.458 112.263 61.6737C112.655 61.8895 113.085 62.0256 113.53 62.074L113.417 62.9091Z" fill="white"/>
<path d="M112.78 63.0837C112.862 63.0931 112.945 63.0858 113.024 63.0622C113.104 63.0387 113.177 62.9994 113.241 62.9468C113.305 62.8941 113.357 62.8291 113.395 62.7557C113.433 62.6823 113.456 62.6019 113.462 62.5194C113.478 62.3541 113.428 62.1893 113.322 62.0612C113.216 61.9332 113.064 61.8524 112.898 61.8367L114.027 61.9664L113.891 63.191L112.78 63.0837Z" fill="#27207C"/>
<path d="M76.1169 71.1976C86.4207 71.9425 95.2687 70.2552 100.889 64.951C104.839 61.1985 112.259 60.1489 113.45 58.5746C114.64 57.0002 113.839 54.9633 111.571 54.2692C109.302 53.5751 104.799 55.2849 101.024 56.9891C100.563 57.1986 100.078 57.3519 99.5798 57.446C99.0336 57.4461 98.5069 57.2436 98.1014 56.8778C97.696 56.5119 97.4406 56.0087 97.3847 55.4654L97.2775 54.4554C97.2775 54.4554 84.3724 59.7935 76.1169 71.1976Z" fill="#B63848"/>
<path d="M215.902 112.047C207.85 98.6903 190.921 96.1003 182.164 96.247C173.406 96.3937 144.87 98.3856 134.115 94.0294C126.779 93.1491 115.883 98.8596 124.093 101.878C132.304 104.897 153.035 116.601 170.534 123.468C188.032 130.335 205.942 131.311 215.637 119.969C218.39 116.922 216.094 112.323 215.902 112.047Z" fill="#FF927A"/>
<path d="M137.236 106.364C137.236 106.364 127.146 101.782 124.111 102.978C121.075 104.174 113.491 106.448 113.491 106.448C106.195 108.141 100.349 104.654 97.4087 103.903C94.4688 103.153 89.9828 97.5665 87.816 94.7564C85.6491 91.9462 86.6366 90.1123 86.6366 90.1123C86.6366 90.1123 85.2316 87.8045 86.0723 86.7605C86.9131 85.7166 89.458 86.6082 89.458 86.6082C90.6544 86.3612 91.8791 86.2795 93.0977 86.3654C93.9724 86.4551 94.8058 86.7831 95.5071 87.3135H95.5466C96.7746 87.0237 98.0534 87.0259 99.2803 87.3199C100.507 87.6138 101.648 88.1915 102.611 89.0064C104.344 90.4509 106.353 92.1437 107.126 92.471C108.519 93.0353 109.947 92.3751 113.333 91.4778C116.718 90.5806 127.045 89.3506 130.583 91.3933C134.121 93.436 139.747 99.2932 139.747 99.2932L137.236 106.364Z" fill="#FF927A"/>
<path d="M-77.9631 165.162C-44.1796 174.715 -1.27202 184.475 42.2623 194.203C39.275 180.546 37.7723 158.592 37.4042 141.208C37.4042 141.208 38.0531 138.257 38.9672 133.472C42.6464 114.309 50.6591 65.7809 38.8092 60.3243C25.1875 53.914 10.9958 57.2772 -4.03098 46.2624C-7.63673 43.6498 -33.7178 45.6981 -33.7178 45.6981C-33.7178 45.6981 -73.5843 48.5025 -78.7926 86.9696C-81.236 105.027 -81.1005 124.122 -80.2654 139.301C-79.656 151.004 -78.5669 160.383 -77.9631 165.162Z" fill="#FF00BF"/>
<path d="M205.726 18.8665C203.57 24.9156 204.168 29.8304 205.669 35.1459C204.016 35.2926 195.473 34.8525 193.819 35.0331C187.979 35.6312 192.369 33.7579 186.642 31.9747C186.851 31.0211 181.343 31.5685 177.732 32.539L173.9 33.3064L172.168 33.47C168.985 33.7183 168.269 32.3415 164.426 28.4254C160.583 24.5093 157.384 20.7455 156.03 15.1648C155.884 14.5939 155.769 14.0156 155.685 13.4324C155.07 8.35386 156.481 6.91494 156.633 4.40389C156.666 3.70945 156.611 3.01366 156.47 2.33302C155.651 -1.77495 153.829 -4.23522 156.289 -12.7728C158.749 -21.3104 172.275 -33.7754 185.57 -32.5678C206.267 -32.5227 212.091 -18.3479 213.332 -9.56207C214.574 -0.776213 208.858 9.31886 205.726 18.8665Z" fill="#FF927A"/>
<path d="M165.395 12.3554C158.522 16.0909 156.056 15.205 156.056 15.205C155.906 14.6348 155.789 14.0564 155.706 13.4726C155.091 8.39409 156.508 6.94953 156.654 4.44412C157.27 3.47317 158.216 2.75762 159.318 2.42959C161.225 1.7976 162.811 3.83465 162.811 3.83465C162.811 3.83465 164.52 5.53883 165.395 12.3554Z" fill="#EC7866"/>
<path d="M164.208 -2.1416C164.693 0.26788 161.426 6.39025 160.85 8.07181C160.275 9.75337 160.591 11.9767 164.208 13.472C165.619 14.0363 168.35 12.1403 168.293 8.66998C167.921 5.45813 167.142 2.30676 165.974 -0.708305L164.208 -2.1416Z" fill="#FF927A"/>
<path d="M123.85 96.1611C123.85 96.1611 116.108 94.8858 113.275 91.4832C110.442 88.0806 113.427 85.8404 117.789 88.0975C122.151 90.3546 130.051 86.7828 134.091 94.062C138.131 101.341 123.85 96.1611 123.85 96.1611Z" fill="#FF927A"/>
<path d="M66.943 121.989C66.5029 110.732 53.6372 67.1352 38.8079 60.3243C36.7662 59.3531 34.6625 58.5181 32.5106 57.8246C29.2829 57.4917 23.183 59.4384 15.0686 71.4858C6.16991 84.6957 4.0482 110.286 3.69835 122.271C3.34849 134.256 3.69837 163.464 37.2957 156.179V152.432C37.4537 145.424 37.4932 145.328 37.4085 141.197L37.2957 147.969C57.7847 144.634 67.6653 140.481 66.943 121.989Z" fill="#00D3B8"/>
</g>
</svg>
