<svg width="93" height="40" viewBox="0 0 93 40" fill="none" xmlns="http://www.w3.org/2000/svg">
<g clip-path="url(#clip0_2_228)">
<path d="M67.6107 6.98685L70.2099 12.1814L92.3404 0L67.6107 6.98685Z" fill="white"/>
<path d="M64.1147 0L67.6107 6.98685L92.3404 0H64.1147Z" fill="url(#paint0_linear_2_228)"/>
<path d="M92.3404 0L70.2099 12.1814L78.2276 28.205L92.3404 0Z" fill="url(#paint1_linear_2_228)"/>
<path d="M6.96514 7.02173H9.43006L16.3227 23.0212H13.071L11.5781 19.3641H4.63447L3.18721 23.0212H-2.45828e-07L6.96514 7.02173ZM10.582 16.9332L8.11704 10.4132L5.60648 16.9332H10.582Z" fill="#A1A1A4"/>
<path d="M29.0393 12.176V22.0499C29.0393 25.9619 27.1383 28.4465 22.9092 28.4465C20.8981 28.4465 19.0642 28.0172 17.539 26.6622L19.1689 24.4459C20.2429 25.4414 21.3868 26.0075 22.9012 26.0075C25.5245 26.0075 26.3381 24.5157 26.3381 22.3692V21.5643H26.2925C25.503 22.6375 24.0987 23.1473 22.7428 23.1473C19.4857 23.1473 17.3377 20.6627 17.3377 17.5879C17.3377 14.3681 19.3488 11.8943 22.7079 11.8943C24.2222 11.8943 25.648 12.4792 26.4401 13.7913H26.4858V12.176H29.0393ZM20.0389 17.5771C20.0374 17.9938 20.1191 18.4066 20.2793 18.7912C20.4395 19.1759 20.6749 19.5248 20.9717 19.8174C21.2685 20.11 21.6208 20.3405 22.0079 20.4953C22.395 20.6502 22.8092 20.7262 23.2261 20.7191C25.2399 20.7191 26.4482 19.34 26.4482 17.5315C26.4482 15.6533 25.205 14.3467 23.2261 14.3467C21.3492 14.3467 20.0389 15.656 20.0389 17.5771Z" fill="#A1A1A4"/>
<path d="M33.9611 18.5431C34.0208 19.2661 34.3578 19.9381 34.9017 20.4186C35.4456 20.8991 36.1544 21.151 36.8798 21.1215C38.2358 21.1215 39.1165 20.491 39.7958 19.6539L41.7425 21.1215C41.2004 21.817 40.5026 22.3758 39.7052 22.7527C38.9077 23.1297 38.0329 23.3145 37.151 23.2922C33.8698 23.2922 31.2438 21.0088 31.2438 17.5959C31.2438 14.183 33.8671 11.9023 37.151 11.9023C40.1825 11.9023 42.2527 14.0274 42.2527 17.8052V18.5431H33.9611ZM39.5246 16.5119C39.5031 14.9316 38.4506 13.9361 36.767 13.9361C35.156 13.9361 34.1652 14.953 33.9611 16.5119H39.5246Z" fill="#A1A1A4"/>
<path d="M44.484 12.176H47.2013V13.8932H47.2469C47.5318 13.2842 47.9885 12.7716 48.5609 12.4184C49.1333 12.0652 49.7965 11.8867 50.4691 11.905C50.7996 11.9114 51.1277 11.9638 51.4437 12.0606V14.6847C51.0163 14.5621 50.5752 14.4936 50.1307 14.4808C47.5772 14.4808 47.2147 16.6273 47.2147 17.2149V23.0212H44.484V12.176Z" fill="#A1A1A4"/>
<path d="M58.2478 11.905C61.5236 11.905 64.155 14.1857 64.155 17.5986C64.155 21.0115 61.529 23.2949 58.2478 23.2949C54.9666 23.2949 52.3406 21.0115 52.3406 17.5986C52.3406 14.1857 54.9666 11.905 58.2478 11.905ZM58.2478 20.8532C60.2374 20.8532 61.435 19.2943 61.435 17.5986C61.435 15.9029 60.2374 14.3467 58.2478 14.3467C56.2581 14.3467 55.0579 15.9056 55.0579 17.5986C55.0579 19.2917 56.2554 20.8532 58.2478 20.8532Z" fill="#A1A1A4"/>
<path d="M66.1607 22.1009C66.1852 22.3569 66.1314 22.6142 66.0064 22.839C65.8815 23.0638 65.6913 23.2455 65.461 23.3601C65.2307 23.4747 64.9709 23.5168 64.7161 23.4809C64.4613 23.4451 64.2234 23.3328 64.0337 23.1591C63.844 22.9853 63.7115 22.7582 63.6536 22.5077C63.5957 22.2571 63.6152 21.995 63.7095 21.7557C63.8037 21.5164 63.9684 21.3114 64.1816 21.1675C64.3949 21.0236 64.6468 20.9477 64.9041 20.9498C65.2233 20.9367 65.5347 21.0505 65.7702 21.2662C66.0057 21.4819 66.1461 21.782 66.1607 22.1009ZM63.9429 22.1009C63.9431 22.2255 63.9685 22.3487 64.0173 22.4633C64.0661 22.5779 64.1374 22.6816 64.2271 22.7681C64.3167 22.8547 64.4228 22.9224 64.5391 22.9673C64.6554 23.0121 64.7795 23.0332 64.9041 23.0292C65.0266 23.0325 65.1485 23.0111 65.2626 22.9664C65.3766 22.9217 65.4806 22.8546 65.5682 22.769C65.6558 22.6835 65.7254 22.5812 65.7728 22.4682C65.8201 22.3553 65.8443 22.2341 65.8439 22.1116C65.8439 21.8597 65.7438 21.6181 65.5655 21.44C65.3872 21.2619 65.1455 21.1618 64.8934 21.1618C64.6413 21.1618 64.3995 21.2619 64.2213 21.44C64.043 21.6181 63.9429 21.8597 63.9429 22.1116V22.1009ZM64.7027 22.7019H64.4181V21.5508C64.5746 21.5276 64.7325 21.516 64.8907 21.516C65.0357 21.5004 65.1817 21.5324 65.3069 21.6072C65.3489 21.6326 65.3832 21.6691 65.4059 21.7126C65.4286 21.7561 65.4389 21.805 65.4358 21.854C65.4358 21.9936 65.3257 22.0848 65.1673 22.1223C65.2908 22.1572 65.3498 22.2458 65.3874 22.3907C65.4018 22.4848 65.4327 22.5756 65.4787 22.659H65.1914C65.1425 22.5762 65.1089 22.4853 65.0921 22.3907C65.0706 22.2699 64.9954 22.2109 64.837 22.2109H64.7027V22.7019ZM64.7027 22.058H64.837C64.9981 22.058 65.127 22.0097 65.127 21.8889C65.127 21.7682 65.0411 21.7118 64.8585 21.7118C64.8049 21.706 64.7509 21.706 64.6974 21.7118L64.7027 22.058Z" fill="#A1A1A4"/>
<path d="M0.27388 33.8771H1.82318C2.03696 33.8765 2.25023 33.8981 2.45955 33.9415C2.65055 33.9799 2.83268 34.0536 2.99657 34.1588C3.15322 34.2614 3.28156 34.4016 3.36979 34.5667C3.46695 34.7642 3.51398 34.9826 3.50673 35.2026C3.51748 35.4439 3.46666 35.6839 3.35905 35.9002C3.265 36.0698 3.12675 36.2107 2.95897 36.308C2.77511 36.417 2.5717 36.489 2.3602 36.52C2.13006 36.555 1.89754 36.5721 1.66476 36.571H1.09015V38.4626H0.28462L0.27388 33.8771ZM1.57884 35.8599C1.69698 35.8599 1.81781 35.8599 1.94132 35.8599C2.06011 35.854 2.17712 35.8286 2.2877 35.7848C2.39275 35.744 2.4853 35.6765 2.55621 35.589C2.61934 35.4831 2.65267 35.3621 2.65267 35.2388C2.65267 35.1155 2.61934 34.9946 2.55621 34.8887C2.49596 34.8055 2.41558 34.7391 2.32261 34.6955C2.22283 34.6481 2.11567 34.6181 2.00577 34.6069C1.89031 34.6069 1.77753 34.5882 1.67013 34.5882H1.09015V35.8734L1.57884 35.8599Z" fill="#A1A1A4"/>
<path d="M4.00348 36.901C4.00084 36.6716 4.04564 36.4442 4.13505 36.2329C4.22279 36.0366 4.34981 35.8604 4.50828 35.715C4.66281 35.5701 4.84564 35.4587 5.04529 35.3877C5.47064 35.2303 5.93833 35.2303 6.36368 35.3877C6.56328 35.458 6.74595 35.5693 6.89994 35.7144C7.05393 35.8595 7.17583 36.0352 7.25781 36.2302C7.34936 36.4409 7.39512 36.6686 7.39207 36.8983C7.39456 37.1279 7.34882 37.3555 7.25781 37.5664C7.17465 37.7596 7.05316 37.9339 6.90069 38.0789C6.74519 38.2232 6.56269 38.3353 6.36368 38.4089C5.93771 38.5628 5.47126 38.5628 5.04529 38.4089C4.84597 38.336 4.66335 38.2237 4.50828 38.0789C4.35495 37.9341 4.23256 37.7597 4.14847 37.5664C4.05532 37.3568 4.00598 37.1303 4.00348 36.901ZM4.77947 36.901C4.77836 37.0201 4.7993 37.1383 4.84123 37.2498C4.88049 37.3594 4.9417 37.4598 5.02113 37.5449C5.10197 37.6325 5.1997 37.7027 5.30843 37.7515C5.42898 37.8029 5.55867 37.8294 5.68972 37.8294C5.82076 37.8294 5.95046 37.8029 6.071 37.7515C6.18053 37.7041 6.27852 37.6337 6.35831 37.5449C6.43852 37.4599 6.50063 37.3595 6.54089 37.2498C6.62321 37.0245 6.62321 36.7774 6.54089 36.5522C6.5013 36.4414 6.43913 36.3399 6.35831 36.2544C6.27777 36.1665 6.17996 36.0962 6.071 36.0478C5.95046 35.9964 5.82076 35.9699 5.68972 35.9699C5.55867 35.9699 5.42898 35.9964 5.30843 36.0478C5.20023 36.0975 5.10267 36.1676 5.02113 36.2544C4.94114 36.3401 4.87988 36.4415 4.84123 36.5522C4.79838 36.6635 4.77653 36.7817 4.77678 36.901H4.77947Z" fill="#A1A1A4"/>
<path d="M7.68743 35.3501H8.53592L9.20719 37.5208L9.8355 35.3501H10.684L11.3553 37.5208H11.3687L12.0131 35.3501H12.7972L11.7419 38.4492H10.9713L10.2356 36.3322L9.58311 38.4492H8.77758L7.68743 35.3501Z" fill="#A1A1A4"/>
<path d="M13.8793 37.172C13.8945 37.3792 13.991 37.5721 14.1478 37.7086C14.3065 37.8384 14.5066 37.9069 14.7116 37.9018C14.8813 37.9072 15.0493 37.8664 15.1976 37.7837C15.3292 37.7037 15.4463 37.6021 15.544 37.4832L16.0998 37.9018C15.9442 38.1161 15.7362 38.287 15.4957 38.3982C15.2726 38.4935 15.0322 38.5419 14.7895 38.5404C14.565 38.5421 14.3421 38.503 14.1317 38.425C13.9323 38.3521 13.7497 38.2398 13.5946 38.095C13.4414 37.9507 13.3197 37.7762 13.2375 37.5825C13.1465 37.3716 13.1008 37.144 13.1033 36.9144C13.1002 36.6847 13.146 36.457 13.2375 36.2463C13.3195 36.0513 13.4414 35.8756 13.5954 35.7305C13.7494 35.5854 13.9321 35.4741 14.1317 35.4038C14.342 35.325 14.5649 35.285 14.7895 35.2857C14.9929 35.2832 15.1947 35.3215 15.3829 35.3984C15.5571 35.4694 15.7138 35.5775 15.8421 35.7151C15.9766 35.8716 16.0772 36.0543 16.1374 36.2517C16.213 36.4837 16.2493 36.7268 16.2448 36.9708V37.1854L13.8793 37.172ZM15.4688 36.5897C15.472 36.4906 15.4548 36.3918 15.4183 36.2995C15.3818 36.2072 15.3268 36.1234 15.2567 36.0531C15.0981 35.9154 14.8919 35.8452 14.6821 35.8573C14.5813 35.8518 14.4805 35.8666 14.3855 35.9007C14.2905 35.9348 14.2033 35.9875 14.129 36.0558C13.987 36.201 13.8989 36.3903 13.8793 36.5924L15.4688 36.5897Z" fill="#A1A1A4"/>
<path d="M16.9752 35.3501H17.7512V35.8412H17.7646C17.8434 35.6686 17.9714 35.523 18.1324 35.4226C18.2977 35.3208 18.4888 35.2686 18.6829 35.2723C18.7288 35.2728 18.7747 35.2773 18.8198 35.2858L18.9595 35.318V36.0665L18.7688 36.0263C18.7076 36.0156 18.6457 36.0102 18.5835 36.0102C18.4322 36.0028 18.2817 36.0372 18.1486 36.1095C18.0491 36.1667 17.9631 36.2444 17.8962 36.3375C17.8397 36.4181 17.8004 36.5095 17.7807 36.6059C17.7634 36.6689 17.7535 36.7337 17.7512 36.799V38.4572H16.9752V35.3501Z" fill="#A1A1A4"/>
<path d="M20.0013 37.172C20.0084 37.2747 20.0358 37.375 20.0819 37.4671C20.128 37.5592 20.1918 37.6413 20.2698 37.7086C20.4272 37.8388 20.6267 37.9075 20.831 37.9018C21.0015 37.9071 21.1704 37.8663 21.3197 37.7837C21.4512 37.7037 21.5683 37.6021 21.666 37.4832L22.2218 37.9018C22.0621 38.1097 21.8525 38.2739 21.6123 38.3794C21.3902 38.4748 21.1506 38.5232 20.9088 38.5216C20.6835 38.5235 20.4597 38.4844 20.2483 38.4062C20.0488 38.3335 19.8662 38.2213 19.7113 38.0762C19.5572 37.9321 19.4346 37.7576 19.3515 37.5637C19.2613 37.3527 19.2165 37.1251 19.2199 36.8956C19.2156 36.6661 19.2605 36.4383 19.3515 36.2275C19.4344 36.0331 19.5567 35.858 19.7105 35.713C19.8644 35.568 20.0466 35.4564 20.2456 35.385C20.4568 35.3059 20.6806 35.2659 20.9062 35.267C21.1086 35.2644 21.3096 35.3027 21.4969 35.3797C21.6756 35.454 21.8346 35.5688 21.9614 35.715C22.0958 35.8721 22.1971 36.0546 22.2594 36.2517C22.3338 36.484 22.37 36.7268 22.3668 36.9707V37.1854L20.0013 37.172ZM21.5909 36.5897C21.5935 36.4904 21.5758 36.3916 21.5389 36.2993C21.5019 36.207 21.4465 36.1232 21.376 36.0531C21.2174 35.9154 21.0112 35.8452 20.8014 35.8573C20.7007 35.8521 20.5999 35.8671 20.505 35.9011C20.41 35.9352 20.3228 35.9878 20.2483 36.0558C20.1082 36.202 20.0212 36.391 20.0013 36.5924L21.5909 36.5897Z" fill="#A1A1A4"/>
<path d="M25.5514 37.985H25.5379C25.436 38.1677 25.2778 38.3126 25.0868 38.3982C24.8935 38.4847 24.6838 38.5286 24.472 38.527C24.2548 38.5295 24.0397 38.4856 23.841 38.3982C23.658 38.3181 23.4935 38.2012 23.3576 38.0547C23.217 37.9062 23.1074 37.731 23.0354 37.5396C22.9666 37.3338 22.9321 37.118 22.9334 36.901C22.9308 36.6823 22.9681 36.465 23.0435 36.2597C23.1115 36.07 23.2155 35.8951 23.3496 35.7446C23.4816 35.5967 23.6436 35.4787 23.8249 35.3984C24.0158 35.3135 24.2227 35.2705 24.4317 35.2723C24.5629 35.2708 24.6937 35.2862 24.821 35.318C24.9235 35.3452 25.0226 35.3839 25.1164 35.4333C25.1952 35.476 25.269 35.5273 25.3366 35.5863C25.3916 35.6342 25.4419 35.6872 25.4869 35.7446H25.5057V33.5686H26.2817V38.4492H25.5433L25.5514 37.985ZM23.7174 36.9117C23.7168 37.0305 23.7367 37.1486 23.7765 37.2605C23.8178 37.3697 23.8798 37.47 23.9591 37.5557C24.0394 37.6438 24.1373 37.7142 24.2464 37.7623C24.367 37.8136 24.4966 37.8401 24.6277 37.8401C24.7587 37.8401 24.8884 37.8136 25.009 37.7623C25.1181 37.7142 25.216 37.6438 25.2963 37.5557C25.3756 37.47 25.4376 37.3697 25.4789 37.2605C25.5566 37.0345 25.5566 36.789 25.4789 36.5629C25.438 36.4519 25.3754 36.3501 25.2947 36.2635C25.214 36.1769 25.1169 36.1072 25.009 36.0585C24.8884 36.0071 24.7587 35.9806 24.6277 35.9806C24.4966 35.9806 24.367 36.0071 24.2464 36.0585C24.1385 36.1072 24.0413 36.1769 23.9607 36.2635C23.88 36.3501 23.8174 36.4519 23.7765 36.5629C23.738 36.6715 23.718 36.7858 23.7174 36.901V36.9117Z" fill="#A1A1A4"/>
<path d="M29.093 33.5686H29.869V35.7446H29.8878C29.9328 35.6872 29.9832 35.6342 30.0382 35.5863C30.1052 35.5267 30.1791 35.4754 30.2583 35.4333C30.3519 35.3833 30.451 35.3446 30.5537 35.318C30.681 35.2862 30.8118 35.2708 30.943 35.2723C31.152 35.2708 31.3588 35.3138 31.5499 35.3985C31.7311 35.4787 31.8932 35.5967 32.0251 35.7446C32.1593 35.8951 32.2632 36.07 32.3312 36.2597C32.4053 36.4654 32.4426 36.6824 32.4413 36.901C32.4426 37.118 32.4081 37.3338 32.3393 37.5396C32.2734 37.7311 32.1692 37.9073 32.0332 38.0574C31.8984 38.205 31.7336 38.3221 31.5499 38.4009C31.3484 38.4882 31.1304 38.5312 30.9108 38.527C30.6954 38.5302 30.4818 38.4862 30.2852 38.3982C30.094 38.3119 29.9351 38.1673 29.8314 37.985V38.4492H29.093V33.5686ZM31.6653 36.901C31.6664 36.7819 31.6455 36.6637 31.6036 36.5522C31.5649 36.4415 31.5037 36.3401 31.4237 36.2544C31.3426 36.1671 31.245 36.0968 31.1364 36.0478C31.0158 35.9964 30.8861 35.9699 30.7551 35.9699C30.624 35.9699 30.4943 35.9964 30.3738 36.0478C30.2648 36.0962 30.167 36.1665 30.0865 36.2544C30.0066 36.3406 29.9445 36.4418 29.9039 36.5522C29.8216 36.7775 29.8216 37.0245 29.9039 37.2498C29.9452 37.359 30.0072 37.4592 30.0865 37.545C30.1663 37.6337 30.2643 37.7041 30.3738 37.7515C30.4943 37.8029 30.624 37.8294 30.7551 37.8294C30.8861 37.8294 31.0158 37.8029 31.1364 37.7515C31.2439 37.7034 31.3406 37.6342 31.4209 37.548C31.5011 37.4618 31.5632 37.3604 31.6036 37.2498C31.6455 37.1383 31.6664 37.0201 31.6653 36.901Z" fill="#A1A1A4"/>
<path d="M32.7528 35.3501H33.604L34.4713 37.4966L35.2472 35.3501H36.0528L34.5867 39.1065C34.5368 39.2407 34.4748 39.37 34.4014 39.4929C34.3384 39.5942 34.2595 39.6848 34.1678 39.7612C34.0727 39.8383 33.9632 39.8958 33.8456 39.9302C33.702 39.9683 33.5538 39.9864 33.4053 39.9839C33.204 39.9838 33.0037 39.9577 32.8092 39.9061L32.9058 39.2085C32.9684 39.2304 33.032 39.2492 33.0965 39.2648C33.1636 39.2787 33.232 39.2859 33.3006 39.2863C33.3809 39.2878 33.4611 39.2797 33.5395 39.2621C33.6001 39.246 33.6567 39.2177 33.706 39.179C33.7518 39.1397 33.79 39.0924 33.8188 39.0394C33.8483 38.9804 33.8805 38.9107 33.9154 38.8275L34.0631 38.4599L32.7528 35.3501Z" fill="#A1A1A4"/>
<path d="M51.5726 35.106C51.5565 34.7411 51.4867 34.5157 51.3336 34.4084C51.1022 34.289 50.8407 34.2404 50.5818 34.2688H49.0808C48.4525 34.2688 48.1437 34.3735 48.133 34.9772C48.133 35.6238 48.3236 35.7821 49.0916 35.7821H50.7698C51.2853 35.7821 51.5995 35.8707 51.8438 36.1121C51.9691 36.2362 52.0654 36.3864 52.1258 36.552C52.1861 36.7176 52.209 36.8945 52.1929 37.07C52.1929 37.5154 52.1231 37.7998 51.8546 38.0547C51.7076 38.1804 51.5366 38.2749 51.352 38.3326C51.1674 38.3902 50.9729 38.4098 50.7805 38.3901H48.9332C48.423 38.3901 48.082 38.2935 47.8591 38.0601C47.6263 37.8039 47.5029 37.4669 47.5154 37.121L48.0981 37.019C48.1169 37.3786 48.184 37.6201 48.3666 37.7274C48.4299 37.7698 48.5012 37.799 48.576 37.8132C48.7438 37.8474 48.9151 37.8618 49.0862 37.8562H50.6543C51.4223 37.8562 51.6209 37.6818 51.6156 37.0512C51.6156 36.7319 51.5458 36.6193 51.441 36.5146C51.2773 36.3644 51.0812 36.3214 50.6355 36.3214H48.9573C48.4472 36.3214 48.1518 36.2248 47.9101 35.9887C47.789 35.8662 47.6953 35.7193 47.6351 35.5579C47.5749 35.3965 47.5497 35.2242 47.5611 35.0523C47.5611 34.6042 47.6524 34.2474 47.9101 34.0435C48.1679 33.8395 48.466 33.7108 48.9842 33.7108H50.7563C51.2746 33.7108 51.6048 33.8127 51.8304 34.0488C52.0559 34.2849 52.1445 34.4728 52.1794 34.9852L51.5726 35.106Z" fill="#A1A1A4"/>
<path d="M55.9627 33.7242H56.5991L58.3766 37.6818L60.1515 33.7242H60.7986L58.6505 38.4357H58.0867L56.924 35.8653L55.7426 38.4357H55.1814L53.0333 33.7242H53.6831L55.4579 37.6845L56.6045 35.1462L55.9627 33.7242Z" fill="#A1A1A4"/>
<path d="M66.3729 36.9171C66.3729 37.5771 66.2896 37.8106 66.0184 38.0682C65.7472 38.3257 65.4814 38.3955 64.9444 38.3955H63.0971C62.5788 38.3955 62.2432 38.307 62.0069 38.0708C61.7706 37.8347 61.6632 37.5771 61.6578 36.9412V35.1006C61.6578 34.5828 61.7599 34.2823 62.0042 34.0488C62.2486 33.8154 62.5708 33.7188 63.0783 33.7188H64.939C65.4546 33.7188 65.7634 33.8127 65.9808 34.0301C66.1983 34.2474 66.338 34.5023 66.3514 35.0765L66.3729 36.9171ZM63.2555 34.2581C62.3936 34.242 62.2754 34.4755 62.2674 35.1945V36.8473C62.2674 37.6764 62.4204 37.8669 63.2528 37.8589H64.8182C65.6479 37.8589 65.7848 37.6791 65.7875 36.8473V35.1945C65.7875 34.4916 65.6506 34.2393 64.8236 34.2581H63.2555Z" fill="#A1A1A4"/>
<path d="M72.3016 36.9171C72.3016 37.5771 72.2183 37.8106 71.9498 38.0682C71.6813 38.3257 71.4128 38.3955 70.8758 38.3955H69.0257C68.5075 38.3955 68.1719 38.307 67.9383 38.0708C67.7047 37.8347 67.5946 37.5771 67.5865 36.9412V35.1006C67.5865 34.5828 67.6912 34.2823 67.9329 34.0488C68.1746 33.8154 68.4995 33.7188 69.0069 33.7188H70.8677C71.386 33.7188 71.692 33.8127 71.9095 34.0301C72.127 34.2474 72.2667 34.5023 72.2801 35.0765L72.3016 36.9171ZM69.1842 34.2581C68.3249 34.242 68.2041 34.4755 68.196 35.1945V36.8473C68.196 37.6764 68.3518 37.8669 69.1815 37.8589H70.7469C71.5766 37.8589 71.7135 37.6791 71.7189 36.8473V35.1945C71.7189 34.4916 71.5793 34.2393 70.7523 34.2581H69.1842Z" fill="#A1A1A4"/>
<path d="M76.8367 33.7269C77.0248 33.7069 77.215 33.7261 77.3952 33.7834C77.5755 33.8407 77.7419 33.9347 77.8839 34.0596C78.1524 34.301 78.2356 34.6391 78.2276 35.1677V35.6319C78.2276 36.147 78.1416 36.4368 77.9 36.681C77.6583 36.9251 77.3495 37.0271 76.7534 37.0244H74.1221V38.3982H73.5394V33.7242L76.8367 33.7269ZM74.1221 36.4851H76.6299C77.4355 36.4851 77.6342 36.3348 77.6368 35.5353V35.267C77.6368 34.403 77.4516 34.2581 76.6058 34.2635H74.1221V36.4851Z" fill="#A1A1A4"/>
<path fill-rule="evenodd" clip-rule="evenodd" d="M46.1971 34.4594C46.1329 34.4835 46.0635 34.4909 45.9957 34.4808L38.1364 34.2125H38.0263C38.0076 34.2146 37.9886 34.2129 37.9706 34.2073C37.9526 34.2018 37.9359 34.1926 37.9216 34.1803C37.9032 34.1641 37.89 34.143 37.8834 34.1194C37.8768 34.0958 37.8773 34.0709 37.8847 34.0476C37.8921 34.0242 37.9061 34.0036 37.9251 33.9881C37.944 33.9726 37.9671 33.9629 37.9914 33.9603C38.0908 33.9603 45.5795 33.7215 46.3286 33.692C46.3562 33.6865 46.3846 33.6871 46.4119 33.6936C46.4393 33.7 46.4649 33.7123 46.487 33.7296C46.5488 33.7886 46.487 33.8959 46.487 33.8959L46.291 34.3252C46.2745 34.3786 46.2416 34.4255 46.1971 34.4594Z" fill="#38BDE7"/>
<path fill-rule="evenodd" clip-rule="evenodd" d="M45.3217 36.3939C45.2575 36.4181 45.1882 36.4255 45.1203 36.4154L40.118 36.147C40.0804 36.1491 40.0432 36.1377 40.0133 36.1148C39.9936 36.0993 39.9792 36.0782 39.9718 36.0542C39.9645 36.0303 39.9646 36.0046 39.9722 35.9808C39.9798 35.9569 39.9944 35.9359 40.0143 35.9205C40.0341 35.9052 40.0581 35.8962 40.0831 35.8948L45.4533 35.6265C45.4808 35.6205 45.5094 35.6208 45.5368 35.6273C45.5642 35.6338 45.5898 35.6464 45.6117 35.6641C45.6735 35.7231 45.6117 35.8278 45.6117 35.8278L45.4157 36.2571C45.3996 36.3114 45.3667 36.3593 45.3217 36.3939Z" fill="#38BDE7"/>
<path fill-rule="evenodd" clip-rule="evenodd" d="M44.4356 38.3284C44.3717 38.3538 44.3021 38.3613 44.2343 38.3499L42.2124 38.1003C42.1694 38.1003 42.1426 38.1003 42.1103 38.0682C42.0907 38.0526 42.0762 38.0315 42.0689 38.0075C42.0616 37.9836 42.0617 37.9579 42.0693 37.9341C42.0768 37.9102 42.0915 37.8892 42.1113 37.8738C42.1311 37.8585 42.1551 37.8495 42.1802 37.8481L44.5672 37.5798C44.5943 37.5738 44.6224 37.5741 44.6494 37.5806C44.6764 37.5871 44.7016 37.5997 44.7229 37.6174C44.7874 37.6791 44.7229 37.7837 44.7229 37.7837L44.5269 38.213C44.5078 38.2592 44.4762 38.2992 44.4356 38.3284Z" fill="#38BDE7"/>
<path d="M80.0534 34.293C80.0659 34.421 80.0393 34.5498 79.977 34.6623C79.9147 34.7749 79.8198 34.866 79.7046 34.9235C79.5895 34.981 79.4596 35.0023 79.3321 34.9845C79.2047 34.9667 79.0856 34.9107 78.9906 34.8239C78.8956 34.7371 78.8292 34.6236 78.8001 34.4983C78.7711 34.373 78.7807 34.2419 78.8278 34.1221C78.8748 34.0024 78.9571 33.8998 79.0638 33.8278C79.1704 33.7558 79.2964 33.7178 79.4251 33.7188C79.5845 33.7122 79.74 33.7689 79.8577 33.8765C79.9754 33.9841 80.0458 34.1338 80.0534 34.293ZM78.9472 34.293C78.9471 34.3551 78.9596 34.4166 78.9838 34.4738C79.0079 34.531 79.0434 34.5828 79.0879 34.6261C79.1325 34.6693 79.1853 34.7032 79.2432 34.7258C79.3011 34.7483 79.363 34.759 79.4251 34.7572C79.4865 34.759 79.5477 34.7484 79.605 34.7262C79.6622 34.7039 79.7144 34.6704 79.7585 34.6276C79.8026 34.5848 79.8376 34.5337 79.8615 34.4771C79.8854 34.4205 79.8977 34.3598 79.8977 34.2984C79.8977 34.1724 79.8476 34.0516 79.7585 33.9625C79.6694 33.8735 79.5485 33.8234 79.4224 33.8234C79.2964 33.8234 79.1755 33.8735 79.0864 33.9625C78.9972 34.0516 78.9472 34.1724 78.9472 34.2984V34.293ZM79.3258 34.5935H79.1835V34.0166C79.2617 34.0056 79.3407 34.0002 79.4197 34.0005C79.4927 33.9923 79.5663 34.0083 79.6292 34.0461C79.6496 34.0595 79.6663 34.0778 79.6776 34.0994C79.6888 34.1211 79.6944 34.1452 79.6936 34.1696C79.6936 34.2393 79.6372 34.2849 79.5647 34.3064C79.6265 34.3252 79.656 34.3681 79.6748 34.4486C79.6829 34.4972 79.6983 34.5442 79.7205 34.5881H79.5701C79.5457 34.5447 79.5285 34.4976 79.5191 34.4486C79.5191 34.3896 79.4708 34.3601 79.3929 34.3601H79.3258V34.5935ZM79.3258 34.2715H79.3929C79.4735 34.2715 79.5379 34.2474 79.5379 34.1857C79.5379 34.124 79.4949 34.0971 79.4063 34.0971C79.3796 34.0933 79.3525 34.0933 79.3258 34.0971V34.2715Z" fill="#A1A1A4"/>
</g>
<defs>
<linearGradient id="paint0_linear_2_228" x1="64.1147" y1="3.49343" x2="92.3404" y2="3.49343" gradientUnits="userSpaceOnUse">
<stop stop-color="#E51A24"/>
<stop offset="0.18" stop-color="#E61F29"/>
<stop offset="0.41" stop-color="#E72E38"/>
<stop offset="0.66" stop-color="#EA4850"/>
<stop offset="0.92" stop-color="#EE6A71"/>
<stop offset="1" stop-color="#EF767C"/>
</linearGradient>
<linearGradient id="paint1_linear_2_228" x1="5856.91" y1="1482.45" x2="7680.9" y2="1482.45" gradientUnits="userSpaceOnUse">
<stop stop-color="#E51A24"/>
<stop offset="0.18" stop-color="#E61F29"/>
<stop offset="0.41" stop-color="#E72E38"/>
<stop offset="0.66" stop-color="#EA4850"/>
<stop offset="0.92" stop-color="#EE6A71"/>
<stop offset="1" stop-color="#EF767C"/>
</linearGradient>
<clipPath id="clip0_2_228">
<rect width="92.3404" height="40" fill="white"/>
</clipPath>
</defs>
</svg>
