<?xml version="1.0" encoding="utf-8"?>
<!-- Generator: Adobe Illustrator 26.2.1, SVG Export Plug-In . SVG Version: 6.00 Build 0)  -->
<svg version="1.1" xmlns="http://www.w3.org/2000/svg" xmlns:xlink="http://www.w3.org/1999/xlink" x="0px" y="0px"
	 viewBox="0 0 174.5 40" style="enable-background:new 0 0 174.5 40;" xml:space="preserve">
<style type="text/css">
	.st0{fill:#007673;}
	.st1{fill:#004750;}
	.st2{fill:#6A2875;}
	.st3{fill:#201B51;}
	.st4{fill:#AB4399;}
	.st5{fill:#231F20;}
</style>
<g id="Layer_1">
	<g>
		<g>
			<path class="st0" d="M26.38,37.02c0.23,0.07,0.3,0.36,0.13,0.53c-2.37,2.4-5.69,2.86-8.62,1.15
				C10.96,34.68,6.88,27.84,1.32,22.44c-0.16-0.16-0.2-0.49-0.03-0.66l1.41-1.48c1.38-1.38,3.62-1.09,4.87,0.33
				C13.06,26.85,17.67,35.14,26.38,37.02z"/>
			<path class="st1" d="M31.42,32.21c0.23,0.07,0.3,0.36,0.13,0.53l-0.46,0.46c-1.91,1.94-4.87,2.43-7.27,1.18
				C14.31,29.48,10.76,18.6,1.65,13.3c-0.23-0.13-0.26-0.53-0.1-0.69l1.74-1.78c0.92-0.92,2.66-0.92,3.95,0.03
				C16.05,17.21,19.64,28.86,31.42,32.21z"/>
			<path class="st2" d="M40.96,22.15c0.23,0.07,0.3,0.36,0.13,0.53l-1.02,1.05c-1.55,1.58-3.68,1.97-5.69,1.09
				C24.18,20.24,20.69,8.92,11.45,3.4c-0.2-0.13-0.26-0.53-0.07-0.69l1.74-1.74c0.92-0.92,2.7-0.92,4.01,0.07
				C25.66,7.44,29.28,18.86,40.96,22.15z"/>
			<path class="st3" d="M36.25,27.18C22.73,23.37,20,8.76,7.83,3.56C4.84,2.11,3.65,3.59,3.36,3.92S1.61,5.7,1.61,5.7
				c-0.2,0.2-0.1,0.66,0.16,0.72C14.9,10.24,17.8,24.25,29.34,29.68c2.17,1.02,4.51,0.59,6.22-1.12l0.82-0.86
				C36.55,27.54,36.48,27.25,36.25,27.18z"/>
			<path class="st4" d="M44.94,16.92C36.71,14.55,33.06,6.65,28.19,0.9c-0.23-0.26-0.53-0.3-0.76-0.07l-0.66,0.66
				c-0.49,0.53-1.84,2.34-1.15,4.87c0.13,0.43,0.3,0.86,0.56,1.28c2.11,3.62,10.07,12.53,15.56,11.81c0.89-0.07,1.84-0.43,2.66-1.32
				l0.66-0.72C45.23,17.25,45.17,16.98,44.94,16.92z"/>
		</g>
		<g>
			<path class="st5" d="M67.29,25.23c-0.2-0.2-0.51-0.2-0.72-0.02c-1.58,1.4-3.1,2.24-5.38,2.24c-3.83,0-6.61-3.18-6.61-7.1v-0.06
				c0-3.92,2.8-7.07,6.61-7.07c2.1,0,3.72,0.84,5.21,2.14c0.22,0.19,0.55,0.17,0.74-0.05l1.64-1.89c0.15-0.18,0.14-0.44-0.03-0.6
				c-1.85-1.68-4.04-2.83-7.53-2.83c-6.07,0-10.33,4.66-10.33,10.36v0.06c0,5.75,4.35,10.3,10.19,10.3c3.53,0,5.77-1.22,7.76-3.18
				c0.2-0.2,0.2-0.53,0-0.73L67.29,25.23z"/>
			<path class="st5" d="M79.43,14.94c-1.86,0-3.13,0.77-4.06,1.79c-0.24,0.26-0.66,0.09-0.66-0.26V9.86c0-0.21-0.17-0.38-0.38-0.38
				h-2.7c-0.21,0-0.38,0.17-0.38,0.38v20.12c0,0.21,0.17,0.38,0.38,0.38h2.7c0.21,0,0.38-0.17,0.38-0.38v-8.14
				c0-2.35,1.4-3.75,3.41-3.75c2.06,0,3.23,1.34,3.23,3.69v8.2c0,0.21,0.17,0.38,0.38,0.38h2.7c0.21,0,0.38-0.17,0.38-0.38v-9.26
				C84.81,17.23,82.84,14.94,79.43,14.94z"/>
			<path class="st5" d="M95.55,15.03c-4.58-0.69-8.63,3.06-8.63,7.69v0.15c0,4.66,3.38,7.84,7.75,7.84c2.58,0,4.47-0.97,5.88-2.49
				c0.17-0.19,0.15-0.48-0.04-0.65l-1.34-1.19c-0.2-0.17-0.49-0.16-0.68,0.01c-1.09,0.97-2.22,1.49-3.75,1.49
				c-2.06,0-3.7-1.17-4.24-3.27c-0.07-0.28,0.14-0.56,0.43-0.56l10.04,0c0.3,0,0.55-0.23,0.57-0.53c0.01-0.15,0.02-0.3,0.02-0.44
				C101.54,19.11,99.53,15.63,95.55,15.03z M97.67,21.75h-6.94c-0.2,0-0.35-0.18-0.31-0.37c0.42-2.15,1.86-3.61,3.86-3.61
				c2.14,0,3.43,1.52,3.77,3.54C98.09,21.55,97.9,21.75,97.67,21.75z"/>
			<path class="st5" d="M111.98,14.94c-1.85,0-3.11,0.76-4.04,1.77c-0.24,0.26-0.68,0.1-0.68-0.26v-0.8c0-0.22-0.18-0.39-0.39-0.39
				h-2.67c-0.22,0-0.39,0.18-0.39,0.39v14.32c0,0.22,0.18,0.39,0.39,0.39h2.67c0.22,0,0.39-0.18,0.39-0.39v-8.13
				c0-2.35,1.4-3.75,3.41-3.75c2.06,0,3.23,1.34,3.23,3.69v8.19c0,0.22,0.18,0.39,0.39,0.39h2.67c0.22,0,0.39-0.18,0.39-0.39v-9.25
				C117.36,17.23,115.38,14.94,111.98,14.94z"/>
			<path class="st5" d="M139.14,10.34h-3c-0.17,0-0.32,0.08-0.41,0.22l-5.54,8.61c-0.19,0.3-0.63,0.3-0.82,0l-5.54-8.61
				c-0.09-0.14-0.24-0.22-0.41-0.22h-3c-0.27,0-0.49,0.22-0.49,0.49v19.06c0,0.27,0.22,0.49,0.49,0.49h2.49
				c0.27,0,0.49-0.22,0.49-0.49V17.66c0-0.48,0.62-0.67,0.89-0.27l5,7.49l0.01,0c0.09,0.14,0.24,0.24,0.42,0.24
				c0.17,0,0.3-0.08,0.4-0.2l0.01,0l5.08-7.58c0.27-0.4,0.89-0.21,0.89,0.27v12.28c0,0.27,0.22,0.49,0.49,0.49h2.55
				c0.27,0,0.49-0.22,0.49-0.49V10.82C139.62,10.55,139.41,10.34,139.14,10.34z"/>
			<path class="st5" d="M150.08,15.03c-4.58-0.69-8.63,3.06-8.63,7.69v0.15c0,4.66,3.38,7.84,7.75,7.84c2.56,0,4.44-0.95,5.84-2.45
				c0.19-0.21,0.17-0.54-0.04-0.73l-1.31-1.16c-0.19-0.17-0.47-0.16-0.66,0.01c-1.1,0.98-2.23,1.5-3.76,1.5
				c-2.06,0-3.71-1.17-4.24-3.29c-0.07-0.27,0.13-0.54,0.41-0.54l10.03,0c0.31,0,0.57-0.24,0.59-0.56c0.01-0.14,0.01-0.28,0.01-0.42
				C156.07,19.11,154.06,15.63,150.08,15.03z M151.99,21.75h-6.58c-0.29,0-0.49-0.27-0.43-0.55c0.46-2.05,1.87-3.43,3.82-3.43
				c2.05,0,3.32,1.4,3.73,3.31C152.6,21.43,152.34,21.75,151.99,21.75z"/>
			<path class="st5" d="M172.86,9.48h-2.54c-0.25,0-0.46,0.2-0.46,0.46c0,1.23,0,4.62,0,6.45c0,0.41-0.49,0.61-0.78,0.32
				c-1.03-1.01-2.42-1.77-4.37-1.77c-3.61,0-7.01,2.83-7.01,7.84v0.06c0,5.01,3.46,7.84,7.01,7.84c1.93,0,3.31-0.77,4.36-1.86
				c0.29-0.3,0.79-0.1,0.79,0.31v0.77c0,0.25,0.21,0.46,0.46,0.46h2.54c0.25,0,0.46-0.21,0.46-0.46V9.94
				C173.32,9.69,173.12,9.48,172.86,9.48z M169.92,22.84c0,2.89-2.06,4.84-4.38,4.84c-2.35,0-4.35-1.92-4.35-4.84v-0.06
				c0-3,1.97-4.84,4.35-4.84c2.32,0,4.38,1.92,4.38,4.84V22.84z"/>
		</g>
	</g>
</g>
<g id="Layer_2">
</g>
<g id="Layer_3">
</g>
<g id="Layer_4">
</g>
<g id="Layer_5">
</g>
</svg>
