<?xml version="1.0" encoding="UTF-8"?>
<svg width="296px" height="118px" viewBox="0 0 296 118" version="1.1" xmlns="http://www.w3.org/2000/svg" xmlns:xlink="http://www.w3.org/1999/xlink">
    <!-- Generator: Sketch 59.1 (86144) - https://sketch.com -->
    <title>Artboard</title>
    <desc>Created with Sketch.</desc>
    <g id="Artboard" stroke="none" stroke-width="1" fill="none" fill-rule="evenodd">
        <g id="Commerce-Icons_CurrancyUSD" transform="translate(2.000000, 3.000000)" fill-rule="nonzero">
            <circle id="Oval" fill="#DCDCFF" cx="56" cy="56" r="56"></circle>
            <path d="M56.2036364,19.1418182 C35.6756247,19.1418182 19.1418182,35.6756247 19.1418182,56.2036364 C19.1418182,76.7318109 35.6756247,93.2654545 56.2036364,93.2654545 C76.7318109,93.2654545 93.2654545,76.7318109 93.2654545,56.2036364 C93.2654545,35.6756247 76.44224,19.1418182 56.2036364,19.1418182 Z M56.2036364,88.7068509 C38.2443753,88.7068509 23.7002996,74.1627345 23.7002996,56.2036364 C23.7002996,38.2443753 38.2443753,23.7002996 56.2036364,23.7002996 C74.1627345,23.7002996 88.7068509,38.2443753 88.7068509,56.2036364 C88.7068509,74.1627345 74.1627345,88.7068509 56.2036364,88.7068509 Z" id="Shape" fill="#523BE4"></path>
            <path d="M55.6318255,53.6349673 C51.9272727,53.3527273 48.22272,52.7809164 46.5076945,51.0736291 C45.08224,49.9300073 44.8,47.9331491 45.6536436,46.2254545 C46.7972655,43.3745455 50.2195782,41.6668509 54.4959418,41.6668509 C61.6232145,41.6668509 65.0386036,44.2281891 66.1818182,45.6536436 L69.6045382,42.8027345 C67.8895127,41.0954473 64.4741236,38.2443753 58.2009018,37.3906095 L58.2009018,31.3992611 L53.6349673,31.3992611 L53.6349673,37.1010793 C47.6509091,37.3906095 43.0923055,39.9518255 41.37728,44.51776 C39.9518255,48.22272 40.8058764,52.2095127 43.3745455,54.7781818 C46.2254545,57.3468509 50.7840582,57.9113309 55.0604218,58.4827345 C59.0545455,59.0545455 63.0486691,59.3367855 65.0386036,61.3336436 C66.1818182,62.4772655 66.7536291,64.4741236 65.8995782,66.1818182 C64.7563636,69.3149673 61.3336436,71.0299927 56.7754473,71.0299927 C49.6481745,71.0299927 46.2254545,68.4609164 45.08224,67.0354618 L41.6668509,69.8863709 C43.3745455,71.6013964 46.7972655,74.4523055 53.3527273,75.3063564 L53.3527273,81.0081745 L57.9113309,81.0081745 L57.9113309,75.3063564 C64.7563636,75.0167855 68.7504873,71.0299927 70.1759418,67.6072727 C71.6013964,63.90272 70.7404218,60.19776 67.8895127,57.6290909 C65.0386036,54.7781818 60.19776,54.2063709 55.6318255,53.6349673 Z" id="Path" fill="#523BE4"></path>
        </g>
    </g>
</svg>