<?xml version="1.0" encoding="UTF-8"?>
<svg width="296px" height="118px" viewBox="0 0 296 118" version="1.1" xmlns="http://www.w3.org/2000/svg" xmlns:xlink="http://www.w3.org/1999/xlink">
    <!-- Generator: Sketch 59.1 (86144) - https://sketch.com -->
    <title>Artboard</title>
    <desc>Created with Sketch.</desc>
    <g id="Artboard" stroke="none" stroke-width="1" fill="none" fill-rule="evenodd">
        <g id="Misc-Icons_Happy-Face" transform="translate(2.000000, 3.000000)" fill-rule="nonzero">
            <circle id="Oval" fill="#DCDCFF" cx="56" cy="56" r="56"></circle>
            <path d="M55.7963636,18.4036364 C35.0850385,18.4036364 18.4036364,35.0850385 18.4036364,55.7963636 C18.4036364,76.5078109 35.0850385,93.1892945 55.7963636,93.1892945 C76.5078109,93.1892945 93.1892945,76.5078109 93.1892945,55.7963636 C93.1892945,35.0850385 76.5078109,18.4036364 55.7963636,18.4036364 Z M55.7963636,88.5899636 C37.6767593,88.5899636 23.0028044,73.9159273 23.0028044,55.7963636 C23.0028044,37.6767593 37.6767593,23.0028044 55.7963636,23.0028044 C73.9159273,23.0028044 88.5899636,37.6767593 88.5899636,55.7963636 C88.5899636,73.9159273 73.9159273,88.5899636 55.7963636,88.5899636 Z" id="Shape" fill="#523BE4"></path>
            <path d="M55.7963636,71.6164655 C50.32832,71.6164655 45.7289891,67.8785164 44.2909091,62.7024873 L39.6917411,63.8485527 C41.4143418,71.3317818 48.0288582,76.5078109 55.7963636,76.5078109 C63.5638691,76.5078109 69.8937018,71.3317818 71.9011491,63.8485527 L67.3018182,62.4104727 C65.8637382,67.8785164 61.2644073,71.6164655 55.7963636,71.6164655 Z" id="Path" fill="#523BE4"></path>
            <path d="M40.8376436,42.5681455 C34.8003956,42.5681455 34.8003956,54.6429673 40.8376436,54.6429673 C46.8827927,54.6429673 46.8827927,42.5681455 40.8376436,42.5681455 Z" id="Path" fill="#523BE4"></path>
            <path d="M70.7550836,42.5681455 C64.7099345,42.5681455 64.7099345,54.6429673 70.7550836,54.6429673 C76.7924945,54.6429673 76.7924945,42.5681455 70.7550836,42.5681455 Z" id="Path" fill="#523BE4"></path>
        </g>
    </g>
</svg>